<svg version="1.1" id="Layer_1" xmlns="http://www.w3.org/2000/svg" xmlns:xlink="http://www.w3.org/1999/xlink" x="0px" y="0px"
	 width="100%" viewBox="0 0 521 521" enable-background="new 0 0 521 521" xml:space="preserve">
<path fill="#010000" opacity="1.000000" stroke="none" 
	d="
M1.000000,196.000000 
	C1.000000,130.666672 1.000000,65.833351 1.000000,1.000017 
	C174.666641,1.000012 348.333282,1.000012 522.000000,1.000006 
	C522.000000,174.666626 522.000000,348.333252 522.000000,521.999878 
	C348.333405,521.999939 174.666809,521.999939 1.000105,522.000000 
	C1.000000,413.500000 1.000000,305.000000 1.000000,196.000000 
M372.689667,114.091866 
	C372.876984,113.772743 373.064331,113.453629 373.141998,113.120979 
	C373.141998,113.120979 373.181610,113.224091 373.819946,112.982079 
	C375.296478,111.380493 376.773010,109.778908 378.135406,108.133820 
	C378.135406,108.133820 378.145477,108.255539 378.693878,108.093613 
	C378.879639,107.773590 379.065369,107.453560 379.114105,107.112381 
	C379.114105,107.112381 379.138916,107.248756 379.690247,107.092964 
	C379.880890,106.776688 380.071503,106.460411 380.122833,106.121277 
	C380.122833,106.121277 380.149506,106.259865 380.701721,106.102570 
	C380.888062,105.782112 381.074371,105.461655 381.136414,105.133545 
	C381.136414,105.133545 381.182343,105.249245 381.860626,105.193031 
	C382.648682,104.189514 383.436737,103.185997 384.126526,102.144592 
	C384.126526,102.144592 384.143494,102.248558 384.686005,102.080109 
	C384.873077,101.763054 385.060181,101.446007 385.111694,101.107529 
	C385.111694,101.107529 385.134766,101.242851 385.682068,101.081154 
	C385.868011,100.761940 386.053955,100.442726 386.105865,100.103714 
	C386.105865,100.103714 386.128632,100.237267 386.671631,100.069939 
	C386.859650,99.753700 387.047668,99.437469 387.104004,99.101715 
	C387.104004,99.101715 387.126221,99.232994 387.667511,99.065285 
	C387.856720,98.750511 388.045929,98.435738 388.104248,98.101044 
	C388.104248,98.101044 388.126068,98.231644 388.670441,98.067574 
	C388.856506,97.750626 389.042572,97.433678 389.124969,97.106033 
	C389.124969,97.106033 389.160889,97.203896 389.800507,96.957741 
	C390.949127,95.697357 392.097717,94.436966 393.144623,93.146477 
	C393.144623,93.146477 393.173584,93.248528 393.873962,93.203735 
	C394.335419,92.528694 394.796844,91.853653 395.137268,91.134705 
	C395.137268,91.134705 395.147552,91.263023 395.711945,91.121559 
	C395.902069,90.800606 396.092224,90.479652 396.148010,90.151901 
	C396.148010,90.151901 396.200134,90.275909 396.909912,90.260696 
	C398.364624,88.573792 399.819336,86.886887 401.146729,85.144936 
	C401.146729,85.144936 401.148529,85.283653 401.741425,85.122368 
	C401.960968,84.786705 402.180481,84.451042 402.813019,84.079781 
	C403.088531,83.915756 403.191772,83.677193 403.682831,83.141937 
	C403.879211,82.805420 404.075592,82.468895 404.123047,82.116905 
	C404.123047,82.116905 404.156219,82.262932 404.700439,82.092407 
	C404.879456,81.768333 405.058472,81.444260 405.104156,81.100685 
	C405.104156,81.100685 405.126282,81.233627 405.669983,81.068382 
	C405.856598,80.751213 406.043243,80.434044 406.124725,80.105896 
	C406.124725,80.105896 406.160339,80.205421 406.757935,79.996185 
	C407.581024,79.058876 408.404144,78.121567 409.128174,77.144699 
	C409.128174,77.144699 409.143707,77.250237 409.686432,77.081223 
	C409.870819,76.762077 410.055176,76.442932 410.106628,76.103798 
	C410.106628,76.103798 410.129333,76.236290 410.673035,76.069252 
	C410.859680,75.752419 411.046295,75.435593 411.100128,75.101280 
	C411.100128,75.101280 411.123474,75.233200 411.671967,75.075432 
	C411.868713,74.765556 412.065460,74.455681 412.123596,74.122749 
	C412.123596,74.122749 412.150574,74.260696 412.706207,74.107506 
	C412.890686,73.785141 413.075165,73.462776 413.147552,73.128326 
	C413.147552,73.128326 413.190918,73.232384 413.788239,73.020607 
	C414.600372,72.073181 415.412506,71.125763 416.123291,70.141701 
	C416.123291,70.141701 416.140320,70.248123 416.681366,70.075516 
	C416.869141,69.759132 417.056915,69.442749 417.124146,69.117737 
	C417.124146,69.117737 417.163940,69.231850 417.856476,69.160080 
	C424.270935,62.765648 430.685425,56.371216 437.347198,49.879536 
	C437.347198,49.879536 437.411224,49.621605 437.510132,49.508823 
	C437.510132,49.508823 437.602417,49.390579 437.992950,49.262104 
	C438.241150,49.101547 438.380371,48.874256 438.496094,48.480476 
	C438.496094,48.480476 438.594696,48.393620 438.997223,48.240494 
	C439.249481,48.061310 439.385773,47.817364 439.501556,47.419106 
	C439.501556,47.419106 439.598053,47.330700 440.044006,47.139645 
	C440.314545,46.924358 440.462494,46.644302 440.858246,46.151810 
	C441.091888,45.996243 441.239868,45.781616 441.786011,45.334667 
	C441.962158,45.051750 442.138275,44.768833 442.409271,44.403866 
	C442.409271,44.403866 442.492310,44.309845 442.930695,44.158466 
	C443.186127,43.953709 443.333740,43.688847 443.831787,43.173206 
	C444.118927,42.973679 444.297089,42.702553 444.827850,42.173634 
	C445.116547,41.974483 445.295776,41.703064 445.825470,41.170780 
	C446.112946,40.971573 446.292755,40.700844 446.820435,40.157131 
	C447.098358,39.945286 447.269257,39.667599 447.914276,39.073761 
	C449.046387,37.834122 450.178528,36.594482 451.886719,35.060753 
	C452.604553,34.047222 453.322357,33.033695 454.351440,31.439112 
	C454.923309,30.780390 455.495209,30.121666 456.393494,29.368402 
	C456.628815,29.315369 456.810699,29.186670 456.976013,29.015608 
	C456.976013,29.015608 457.001831,28.973091 457.523743,29.074984 
	C457.829620,28.661692 458.135498,28.248398 458.730255,27.752747 
	C458.730255,27.752747 458.840851,27.473452 459.369812,27.255577 
	C460.080444,26.374519 460.791077,25.493462 461.579590,24.494532 
	C461.579590,24.494532 461.679352,24.394501 462.023254,24.287724 
	C462.242157,24.150820 462.368988,23.954470 462.575928,23.591911 
	C462.575928,23.591911 462.705414,23.436190 463.270599,23.170773 
	C466.236633,19.920101 469.202637,16.669432 472.168671,13.418760 
	C471.868164,13.025743 471.567657,12.632724 471.267120,12.239705 
	C468.950165,13.561072 466.633179,14.882439 463.658997,15.889329 
	C459.866211,15.082691 457.943878,16.375282 458.434082,20.446514 
	C458.434082,20.446514 458.416229,20.531866 457.656677,20.229311 
	C454.745056,19.773460 453.967102,21.460287 453.981079,23.992805 
	C453.981079,23.992805 453.912659,23.948648 453.138550,23.951113 
	C451.006226,24.450405 448.873932,24.949699 446.772278,25.441813 
	C446.837769,26.699421 446.895721,27.812008 446.981049,29.000504 
	C446.981049,29.000504 446.918610,28.949333 446.095642,28.939655 
	C443.913910,29.061443 441.320892,28.738565 442.209351,32.137405 
	C442.209351,32.137405 442.340210,32.399235 441.581604,32.166451 
	C440.090515,33.492641 438.599426,34.818829 437.042877,36.041798 
	C437.042877,36.041798 437.149506,36.101604 436.627350,36.195610 
	C436.421082,36.470474 436.214844,36.745338 436.000000,36.998310 
	C436.000000,36.998310 436.020813,37.010143 435.557312,37.112541 
	C435.254486,37.266571 435.064514,37.509037 434.769409,38.126602 
	C434.769409,38.126602 434.416870,38.200207 433.612854,38.087502 
	C425.014893,41.005981 418.612335,47.073082 412.171417,53.076050 
	C411.984985,53.249805 412.068359,53.713047 412.001801,53.997894 
	C412.001801,53.997894 412.044159,54.024132 411.568085,54.185856 
	C411.376190,54.452553 411.184296,54.719254 411.000000,55.000458 
	C411.000000,55.000458 410.986481,54.990246 410.246948,54.980003 
	C408.172791,56.666733 406.098633,58.353458 404.002655,59.997604 
	C404.002655,59.997604 404.040253,60.027744 403.290802,60.000126 
	C397.644867,62.531071 391.984009,65.042793 389.004028,70.998184 
	C389.004028,70.998184 389.054932,71.031906 388.575775,71.186256 
	C388.379913,71.450745 388.184052,71.715233 387.999115,72.001480 
	C387.999115,72.001480 387.978363,71.987083 387.533539,72.096870 
	C387.241852,72.246803 387.059814,72.481705 386.767181,73.092880 
	C386.767181,73.092880 386.414368,73.187096 385.825745,73.217781 
	C385.554352,73.487198 385.282959,73.756615 385.000000,73.998573 
	C385.000000,73.998573 385.024536,74.015930 384.266113,74.000740 
	C381.088318,75.075722 377.115234,75.179771 376.998322,80.002083 
	C376.998322,80.002083 376.967590,79.978760 376.208588,79.961418 
	C373.603760,79.867310 371.868378,80.760857 371.439758,84.009895 
	C370.966003,84.340729 370.492249,84.671570 369.233093,84.988403 
	C365.737000,85.007812 363.328033,86.314896 362.859802,90.601990 
	C362.624756,90.833351 362.343231,90.966438 361.248077,90.980606 
	C358.224518,92.199028 354.020508,91.876541 353.061340,96.873230 
	C350.948425,98.503342 348.835510,100.133461 346.002869,101.900444 
	C339.923767,104.564156 333.372681,106.633797 330.936066,113.962395 
	C330.936066,113.962395 330.859619,113.920517 330.256317,113.961990 
	C329.872742,114.371223 329.489197,114.780464 329.083466,115.098518 
	C329.083466,115.098518 329.174316,115.122025 328.642792,115.209351 
	C328.436066,115.488564 328.229340,115.767776 328.003418,115.997726 
	C328.003418,115.997726 328.044403,116.031281 327.297455,115.985344 
	C325.212799,117.678917 323.128113,119.372498 321.007599,120.998474 
	C321.007599,120.998474 321.064850,121.049393 320.285278,120.984436 
	C317.553833,120.830650 315.835449,121.817757 315.655121,125.331482 
	C315.171661,125.586761 314.688202,125.842041 313.443390,126.025360 
	C311.673248,127.406578 309.903137,128.787796 308.042816,130.051865 
	C308.042816,130.051865 308.169586,130.127975 307.653076,130.255341 
	C307.461029,130.541245 307.269012,130.827148 307.013397,131.018356 
	C307.013397,131.018356 307.107025,131.083557 306.237671,131.338181 
	C306.020721,131.548187 305.803741,131.758179 305.370087,132.378326 
	C305.012848,132.625626 304.655609,132.872925 304.054321,132.333572 
	C303.408539,131.890030 302.762787,131.446472 302.124298,130.297226 
	C306.685211,120.971466 311.246155,111.645691 316.109161,101.702332 
	C302.765656,101.702332 290.459900,101.641914 278.157196,101.808716 
	C277.089203,101.823189 275.576935,103.111382 275.056335,104.187759 
	C269.915161,114.817047 264.820038,125.472855 259.989441,136.245621 
	C258.505066,139.555939 256.638458,140.726517 252.930679,141.032593 
	C226.971863,143.175537 204.711212,153.175735 187.679871,173.341141 
	C166.809219,198.052322 165.154907,233.238647 183.315094,257.454712 
	C195.637482,273.886200 212.721558,281.426727 232.406036,283.977051 
	C242.787491,285.322113 253.355530,285.395782 263.659760,287.117798 
	C272.910522,288.663788 279.044312,294.839539 281.499359,303.997009 
	C283.869965,312.839478 281.252289,320.419800 274.606445,326.633026 
	C268.473755,332.366425 261.034180,334.932220 252.794952,335.147217 
	C226.500061,335.833344 202.295395,329.957123 181.870911,311.740204 
	C170.715530,324.148651 159.730209,336.367920 148.145721,348.831573 
	C147.631363,349.505554 147.117020,350.179535 145.956238,350.957153 
	C135.125870,362.254456 124.283630,373.540527 113.505997,384.887909 
	C113.047874,385.370300 113.188408,386.421326 113.560387,387.753662 
	C115.307396,388.157990 117.059845,388.932861 118.800552,388.907288 
	C131.473923,388.721405 144.144272,388.332947 156.817581,388.138428 
	C158.178940,388.117493 159.553040,388.928650 160.921234,389.353821 
	C161.034561,389.815033 161.147873,390.276276 161.261200,390.737488 
	C160.548615,391.147827 159.643387,391.399506 159.154022,391.993683 
	C155.368713,396.589844 151.663773,401.252197 147.972321,405.981018 
	C147.972321,405.981018 147.883698,405.946716 147.439453,406.117981 
	C147.160095,406.310303 146.998734,406.574677 146.989334,406.987244 
	C146.989334,406.987244 146.911621,406.957092 146.453537,407.136810 
	C146.165405,407.341248 146.009933,407.619751 146.001617,407.999847 
	C146.001617,407.999847 145.972916,407.988678 145.508133,408.158295 
	C145.215317,408.353119 145.041260,408.624207 144.999771,409.000824 
	C144.999771,409.000824 144.973114,408.981750 144.243347,408.968842 
	C137.875351,412.452972 132.896423,417.248291 130.000000,423.999573 
	C130.000000,423.999573 130.035400,424.019714 129.547592,424.176392 
	C129.367935,424.456329 129.188263,424.736267 128.999588,425.000000 
	C128.999588,425.000000 129.014938,425.010284 128.283005,424.992981 
	C123.975883,426.566315 120.904678,429.279999 120.000206,434.000000 
	C120.000206,434.000000 119.982246,433.988983 119.241913,433.976135 
	C117.817329,435.635193 116.392746,437.294250 114.997185,439.002106 
	C114.997185,439.002106 114.948036,438.973267 114.478920,439.122803 
	C114.180832,439.312164 114.010117,439.582123 113.996292,439.996582 
	C113.996292,439.996582 113.932404,439.966919 113.470879,440.120911 
	C113.177979,440.309967 113.010216,440.577545 112.759163,441.395569 
	C112.476746,441.581360 112.194328,441.767151 111.194122,441.957001 
	C107.381165,445.234985 103.421303,448.361755 99.820808,451.858490 
	C98.162071,453.469421 97.206734,455.804596 95.739502,458.334625 
	C95.704918,458.517303 95.670326,458.699951 95.239792,458.890472 
	C95.239792,458.890472 94.846581,458.937744 94.135254,458.939423 
	C90.009560,463.218079 85.883858,467.496704 81.394936,472.066223 
	C81.161194,472.272919 80.953949,472.503448 80.391121,473.040070 
	C80.160583,473.258820 79.955399,473.499207 79.074036,473.903137 
	C77.701805,475.570953 76.329567,477.238770 74.742508,479.359100 
	C74.487679,479.568634 74.232841,479.778137 73.508087,480.119568 
	C73.225433,480.294373 72.999512,480.524811 72.121910,480.926819 
	C68.403214,484.001923 64.455475,486.846008 61.042610,490.229614 
	C58.575253,492.675781 56.818375,495.838623 54.090134,498.892639 
	C53.307270,499.854095 52.524403,500.815582 51.019619,501.919800 
	C47.860493,505.076202 44.701366,508.232605 41.542240,511.388977 
	C41.916096,511.924408 42.289951,512.459839 42.663811,512.995239 
	C44.453735,512.606384 46.524921,512.663269 47.980598,511.744659 
	C52.267742,509.039307 56.409813,506.074219 60.409611,502.955475 
	C62.541695,501.293060 64.262779,499.103577 66.557785,496.882111 
	C66.821068,496.676666 66.976585,496.408691 67.116364,495.769775 
	C67.116364,495.769775 67.174911,495.453339 67.806870,495.297119 
	C68.620735,494.616180 69.434601,493.935242 70.087196,493.095337 
	C70.087196,493.095337 70.204376,493.289062 70.719116,493.221191 
	C70.949127,492.977600 71.179146,492.734009 71.403290,492.087494 
	C71.403290,492.087494 71.444237,492.488556 71.992043,492.348785 
	C72.541328,491.852966 73.090614,491.357117 73.847923,490.891968 
	C73.847923,490.891968 73.886337,490.685242 74.439003,490.554474 
	C74.977867,490.050812 75.516731,489.547119 76.711174,488.853424 
	C121.472717,456.304321 166.228180,423.746826 211.017746,391.236359 
	C212.843338,389.911224 214.990692,389.029419 217.184982,388.689697 
	C211.939407,399.356476 206.693832,410.023224 201.177826,421.239929 
	C214.350281,421.239929 226.957062,421.319519 239.558746,421.102051 
	C240.671692,421.082855 242.157135,419.320892 242.782089,418.034393 
	C247.870026,407.560730 252.775467,396.998535 257.782562,386.485260 
	C258.900818,384.137238 259.802338,382.102325 263.332520,381.805817 
	C279.147980,380.477356 293.955139,375.704681 307.557892,367.415070 
	C335.416901,350.437469 349.332123,321.716827 343.773865,289.651215 
	C339.605103,265.601532 322.164642,245.998886 293.078766,240.236542 
	C282.859222,238.211899 272.259796,237.920197 261.806274,237.306076 
	C247.766754,236.481277 236.158203,227.631287 234.991898,216.324890 
	C233.680191,203.609070 242.041550,192.211487 256.312164,189.082275 
	C263.319183,187.545792 270.859833,187.361618 278.048981,187.937958 
	C300.423462,189.731705 321.153412,196.027390 337.660706,212.587997 
	C348.964142,200.082092 360.217194,187.631927 372.019379,174.992203 
	C372.443634,174.360703 372.867859,173.729202 373.931244,172.961823 
	C384.928589,160.965454 395.925934,148.969086 406.923309,136.972717 
	C406.704163,136.577423 406.485046,136.182114 406.265930,135.786819 
	C388.180206,135.786819 370.094452,135.786819 352.618469,134.953735 
	C352.752075,134.636581 352.885651,134.319443 353.628082,133.734573 
	C358.156982,128.873444 362.685883,124.012329 367.107513,119.110291 
	C367.107513,119.110291 367.109680,119.225067 367.667694,119.052269 
	C367.878387,118.734444 368.089050,118.416618 368.723816,118.038879 
	C369.014557,117.887558 369.141296,117.649086 369.651337,117.097893 
	C369.848022,116.768707 370.044678,116.439522 370.100800,116.097717 
	C370.100800,116.097717 370.128418,116.236092 370.674774,116.073425 
	C370.862610,115.756607 371.050446,115.439789 371.104462,115.103691 
	C371.104462,115.103691 371.127411,115.236961 371.673523,115.074760 
	C371.866058,114.761032 372.058594,114.447304 372.114258,114.111565 
	C372.114258,114.111565 372.138184,114.248093 372.689667,114.091866 
z"/>
<path fill="#FDFDF4" opacity="1.000000" stroke="none" 
	d="
M371.470245,175.181763 
	C360.217194,187.631927 348.964142,200.082092 337.660706,212.587997 
	C321.153412,196.027390 300.423462,189.731705 278.048981,187.937958 
	C270.859833,187.361618 263.319183,187.545792 256.312164,189.082275 
	C242.041550,192.211487 233.680191,203.609070 234.991898,216.324890 
	C236.158203,227.631287 247.766754,236.481277 261.806274,237.306076 
	C272.259796,237.920197 282.859222,238.211899 293.078766,240.236542 
	C322.164642,245.998886 339.605103,265.601532 343.773865,289.651215 
	C349.332123,321.716827 335.416901,350.437469 307.557892,367.415070 
	C293.955139,375.704681 279.147980,380.477356 263.332520,381.805817 
	C259.802338,382.102325 258.900818,384.137238 257.782562,386.485260 
	C252.775467,396.998535 247.870026,407.560730 242.782089,418.034393 
	C242.157135,419.320892 240.671692,421.082855 239.558746,421.102051 
	C226.957062,421.319519 214.350281,421.239929 201.177826,421.239929 
	C206.693832,410.023224 211.939407,399.356476 217.299561,388.075195 
	C218.387299,386.664856 219.360489,385.869019 220.660889,384.970337 
	C223.201538,381.982758 221.409805,379.923767 218.977112,379.401703 
	C216.468887,378.863434 213.664169,379.706787 210.673126,379.944946 
	C209.945587,379.856995 209.534103,379.769745 209.013580,379.360687 
	C201.307953,376.370209 193.745163,373.598694 186.097702,371.084778 
	C183.145172,370.114258 180.000427,369.728455 176.939880,369.055664 
	C176.936493,369.035034 176.925629,369.084106 176.914795,368.721252 
	C176.020935,367.468170 175.254715,366.405762 174.236420,365.714844 
	C165.765564,359.966827 157.248199,354.287384 148.744904,348.587189 
	C159.730209,336.367920 170.715530,324.148651 181.870911,311.740204 
	C202.295395,329.957123 226.500061,335.833344 252.794952,335.147217 
	C261.034180,334.932220 268.473755,332.366425 274.606445,326.633026 
	C281.252289,320.419800 283.869965,312.839478 281.499359,303.997009 
	C279.044312,294.839539 272.910522,288.663788 263.659760,287.117798 
	C253.355530,285.395782 242.787491,285.322113 232.406036,283.977051 
	C212.721558,281.426727 195.637482,273.886200 183.315094,257.454712 
	C165.154907,233.238647 166.809219,198.052322 187.679871,173.341141 
	C204.711212,153.175735 226.971863,143.175537 252.930679,141.032593 
	C256.638458,140.726517 258.505066,139.555939 259.989441,136.245621 
	C264.820038,125.472855 269.915161,114.817047 275.056335,104.187759 
	C275.576935,103.111382 277.089203,101.823189 278.157196,101.808716 
	C290.459900,101.641914 302.765656,101.702332 316.109161,101.702332 
	C311.246155,111.645691 306.685211,120.971466 301.932281,130.960159 
	C301.241089,133.089310 300.741882,134.555527 299.854919,136.040710 
	C298.691132,137.640533 296.937988,139.620316 297.380341,140.703690 
	C297.965210,142.136063 300.137390,143.348221 301.856354,143.819382 
	C312.099640,146.626999 322.737366,148.322769 332.617706,152.049042 
	C346.818878,157.404846 359.516083,165.789276 371.470245,175.181763 
z"/>
<path fill="#EDB644" opacity="1.000000" stroke="none" 
	d="
M403.122711,83.364090 
	C403.191772,83.677193 403.088531,83.915756 402.306335,84.177689 
	C401.582642,84.611618 401.365601,84.947639 401.148529,85.283661 
	C401.148529,85.283653 401.146729,85.144936 400.842712,85.138641 
	C399.092529,86.846863 397.646332,88.561386 396.200134,90.275909 
	C396.200134,90.275909 396.148010,90.151901 395.931213,90.223373 
	C395.525452,90.617569 395.336487,90.940292 395.147552,91.263023 
	C395.147552,91.263023 395.137268,91.134705 394.836792,91.142731 
	C394.082092,91.850021 393.627838,92.549278 393.173584,93.248535 
	C393.173584,93.248528 393.144623,93.146477 392.796753,93.111237 
	C389.515808,92.988701 388.805908,94.672211 389.160889,97.203896 
	C389.160889,97.203896 389.124969,97.106033 388.903687,97.193268 
	C388.496948,97.597542 388.311493,97.914589 388.126068,98.231644 
	C388.126068,98.231644 388.104248,98.101044 387.895538,98.191628 
	C387.499939,98.599136 387.313080,98.916061 387.126221,99.232986 
	C387.126221,99.232994 387.104004,99.101715 386.895386,99.192459 
	C386.500732,99.601227 386.314697,99.919250 386.128662,100.237274 
	C386.128632,100.237267 386.105865,100.103714 385.897339,100.193909 
	C385.504120,100.603691 385.319427,100.923271 385.134766,101.242844 
	C385.134766,101.242851 385.111694,101.107529 384.903198,101.197647 
	C384.510956,101.608032 384.327240,101.928299 384.143494,102.248566 
	C384.143494,102.248558 384.126526,102.144592 383.776489,102.113754 
	C382.678436,103.138359 381.930389,104.193802 381.182343,105.249245 
	C381.182343,105.249245 381.136414,105.133545 380.918579,105.212112 
	C380.516968,105.613731 380.333221,105.936798 380.149506,106.259857 
	C380.149506,106.259865 380.122833,106.121277 379.912781,106.205360 
	C379.514771,106.609215 379.326843,106.928986 379.138916,107.248756 
	C379.138916,107.248756 379.114105,107.112381 378.904724,107.200851 
	C378.512085,107.611397 378.328796,107.933472 378.145508,108.255547 
	C378.145477,108.255539 378.135406,108.133820 377.816010,108.129738 
	C376.058289,109.825134 374.619934,111.524612 373.181610,113.224091 
	C373.181610,113.224091 373.141998,113.120979 372.919159,113.204514 
	C372.510284,113.608063 372.324249,113.928085 372.138184,114.248093 
	C372.138184,114.248093 372.114258,114.111565 371.905640,114.198761 
	C371.507172,114.602951 371.317291,114.919960 371.127411,115.236969 
	C371.127411,115.236961 371.104462,115.103691 370.896362,115.193146 
	C370.501648,115.600426 370.315033,115.918259 370.128418,116.236092 
	C370.128418,116.236092 370.100800,116.097717 369.887726,116.203461 
	C369.484436,116.647301 369.294220,116.985390 369.104004,117.323471 
	C369.141296,117.649086 369.014557,117.887558 368.230621,118.154541 
	C367.528168,118.588486 367.318939,118.906776 367.109680,119.225067 
	C367.109680,119.225067 367.107513,119.110291 366.801636,119.109695 
	C361.794159,123.530640 357.081116,127.940361 352.438202,132.422684 
	C352.275330,132.579926 352.809784,133.459427 353.019226,134.002289 
	C352.885651,134.319443 352.752075,134.636581 352.331909,135.660217 
	C353.583710,136.912140 355.116547,137.911514 356.661377,137.930389 
	C367.811615,138.066772 378.964294,138.004715 390.116180,138.005447 
	C393.544464,138.005676 396.972778,138.005493 401.547821,138.005493 
	C399.995117,140.445267 399.237457,142.036514 398.123444,143.317917 
	C392.910461,149.314011 387.891388,155.523895 382.220734,161.061050 
	C378.423035,164.769318 376.076569,171.124771 368.952332,170.059845 
	C368.965240,170.046875 368.964294,170.056671 368.866882,169.821243 
	C368.489319,169.406464 368.209229,169.227112 367.963928,169.055145 
	C367.998779,169.062546 367.931885,169.087112 367.905823,168.733917 
	C366.919312,167.916382 365.958862,167.452026 364.929016,166.867386 
	C364.859589,166.747086 364.866364,166.469421 364.768982,166.124268 
	C364.032501,165.556458 363.393463,165.333817 362.566559,165.047806 
	C362.132751,164.861816 361.947784,164.677872 361.844421,164.052185 
	C358.413239,160.515747 355.555420,156.283142 349.954071,157.087463 
	C349.986572,157.093124 349.918549,157.105942 349.897797,156.749496 
	C345.803589,154.647476 341.730103,152.901901 337.490173,151.172684 
	C337.323700,151.189041 337.010437,151.071457 336.966797,150.698227 
	C334.260803,147.334198 327.049072,144.946503 323.659729,146.023346 
	C322.575836,145.706039 321.804535,145.402557 320.858948,144.759354 
	C314.785706,142.640747 308.886688,140.861877 302.867249,139.046692 
	C305.911285,135.715103 308.490479,132.892242 311.430725,130.044159 
	C318.856445,125.162521 325.947144,120.342751 332.938293,115.382706 
	C333.520477,114.969666 333.431061,113.610031 333.680389,112.698029 
	C333.707092,112.705856 333.748322,112.743286 334.131439,112.824326 
	C338.441162,111.571609 342.318878,110.179001 343.488098,105.501282 
	C343.523071,105.519936 343.578705,105.463432 343.945435,105.614670 
	C348.352234,103.274529 352.441010,100.855911 356.383911,98.219177 
	C357.030334,97.786888 357.034729,96.394569 357.335693,95.411766 
	C357.335541,95.377579 357.345764,95.309967 357.708893,95.462296 
	C362.422577,94.405182 366.462311,92.817574 367.676849,87.759247 
	C367.712341,87.769043 367.747620,87.833672 368.022888,87.784164 
	C368.514709,87.445221 368.731262,87.155792 368.931305,86.893951 
	C368.914825,86.921555 368.883484,86.864555 369.272156,86.906815 
	C371.033264,86.530006 372.627747,86.426216 373.742340,85.641106 
	C381.438293,80.220016 389.084106,74.723122 396.602356,69.059845 
	C397.599518,68.308716 397.784424,66.479225 398.390747,65.137405 
	C398.436005,65.125664 398.528839,65.115082 398.844910,65.348267 
	C399.717194,64.974091 400.273376,64.366737 400.839539,63.744362 
	C400.849487,63.729351 400.814545,63.710743 401.186096,63.790939 
	C409.361450,58.754227 417.298676,53.827431 424.933716,48.470013 
	C433.558319,42.418247 441.911377,35.979458 450.720886,29.458504 
	C450.866730,30.866404 450.980194,31.961859 451.078186,33.048565 
	C451.062744,33.039814 451.038666,33.052746 450.779053,33.209862 
	C450.358490,33.937462 450.197510,34.507946 449.922394,35.282028 
	C449.611908,35.739342 449.362579,35.919888 448.673828,36.017769 
	C443.741638,36.204590 443.044983,39.783314 442.126740,43.417595 
	C442.297699,43.924984 442.394989,44.117413 442.492310,44.309845 
	C442.492310,44.309845 442.409271,44.403866 442.073669,44.302643 
	C441.528839,44.157490 441.319611,44.113560 440.771912,44.092384 
	C439.985260,44.785561 439.537140,45.455986 439.174225,46.445259 
	C439.372314,46.952972 439.485168,47.141838 439.598053,47.330700 
	C439.598053,47.330700 439.501556,47.419106 439.174011,47.427116 
	C438.762512,47.754623 438.678619,48.074123 438.594696,48.393620 
	C438.594696,48.393620 438.496094,48.480476 438.180756,48.469456 
	C437.777771,48.769150 437.690094,49.079868 437.602417,49.390579 
	C437.602417,49.390579 437.510132,49.508823 437.195129,49.459770 
	C436.563019,49.601814 436.245941,49.792912 435.565216,49.990143 
	C434.300018,50.346252 433.139984,50.450668 432.537506,51.084789 
	C427.452423,56.436981 422.452332,61.870628 417.490326,67.337570 
	C417.126953,67.737946 417.261078,68.589859 417.163940,69.231850 
	C417.163940,69.231850 417.124146,69.117737 416.908386,69.202454 
	C416.508545,69.607483 416.324432,69.927803 416.140320,70.248123 
	C416.140320,70.248123 416.123291,70.141701 415.776001,70.111313 
	C414.682770,71.131401 413.936829,72.181885 413.190918,73.232376 
	C413.190918,73.232384 413.147552,73.128326 412.923645,73.209366 
	C412.516693,73.613831 412.333618,73.937263 412.150574,74.260696 
	C412.150574,74.260696 412.123596,74.122749 411.913635,74.204643 
	C411.510254,74.602089 411.316864,74.917641 411.123474,75.233200 
	C411.123474,75.233200 411.100128,75.101280 410.892365,75.191360 
	C410.499512,75.599716 410.314423,75.917999 410.129333,76.236290 
	C410.129333,76.236290 410.106628,76.103798 409.897369,76.194687 
	C409.506622,76.607124 409.325165,76.928673 409.143707,77.250229 
	C409.143707,77.250237 409.128174,77.144699 408.780884,77.113251 
	C407.675812,78.123009 406.918091,79.164223 406.160339,80.205429 
	C406.160339,80.205421 406.124725,80.105896 405.903992,80.193741 
	C405.497589,80.598930 405.311920,80.916275 405.126282,81.233627 
	C405.126282,81.233627 405.104156,81.100685 404.895508,81.194687 
	C404.510010,81.613441 404.333130,81.938187 404.156219,82.262939 
	C404.156219,82.262932 404.123047,82.116905 403.906677,82.220833 
	C403.501099,82.671204 403.311920,83.017654 403.122711,83.364090 
z"/>
<path fill="#D7AF56" opacity="1.000000" stroke="none" 
	d="
M220.333664,385.073181 
	C219.360489,385.869019 218.387299,386.664856 217.201126,387.700867 
	C214.990692,389.029419 212.843338,389.911224 211.017746,391.236359 
	C166.228180,423.746826 121.472717,456.304321 76.106781,488.926147 
	C75.317703,488.985474 75.133034,488.972137 75.005661,488.609863 
	C75.494034,487.577423 75.769775,486.670929 76.380577,486.245514 
	C81.710281,482.533325 87.213699,479.060577 92.425735,475.193542 
	C95.202972,473.132996 97.507118,470.434814 100.016975,468.019165 
	C100.009178,468.013916 100.023003,468.023621 100.374283,468.018494 
	C102.159515,467.013428 103.593475,466.013428 105.327545,464.862671 
	C113.676788,459.043396 121.829506,453.515442 129.753128,447.676636 
	C145.405014,436.142944 160.880432,424.369965 176.524246,412.825195 
	C187.841995,404.472992 199.341690,396.367462 210.673813,388.034393 
	C211.825974,387.187164 212.383041,385.530701 213.626266,383.619446 
	C208.344650,382.261536 203.851562,381.287903 199.474823,379.937286 
	C193.369766,378.053284 187.254745,376.131348 181.323578,373.773804 
	C175.394760,371.417175 169.551270,368.758575 163.925125,365.755127 
	C159.376709,363.327026 153.887894,361.785736 152.106049,355.893677 
	C152.220062,355.778961 152.448395,355.549896 152.746170,355.699402 
	C155.104523,357.183197 157.087021,358.662262 159.240723,359.823853 
	C165.096939,362.982422 171.025650,366.006622 176.925629,369.084106 
	C176.925629,369.084106 176.936493,369.035034 177.134552,369.342896 
	C187.929260,372.994690 198.525940,376.338623 209.122620,379.682526 
	C209.534103,379.769745 209.945587,379.856995 210.943848,380.212860 
	C214.441788,382.056519 219.416962,379.674438 220.333664,385.073181 
z"/>
<path fill="#F0BD46" opacity="1.000000" stroke="none" 
	d="
M100.024773,468.024414 
	C97.507118,470.434814 95.202972,473.132996 92.425735,475.193542 
	C87.213699,479.060577 81.710281,482.533325 76.380577,486.245514 
	C75.769775,486.670929 75.494034,487.577423 74.788017,488.761566 
	C74.304176,489.736603 74.095261,490.210907 73.886337,490.685242 
	C73.886337,490.685242 73.847923,490.891968 73.416779,490.899841 
	C72.471832,491.434631 71.958038,491.961609 71.444237,492.488556 
	C71.444237,492.488556 71.403290,492.087494 71.115524,492.238068 
	C70.619972,492.688782 70.412178,492.988922 70.204376,493.289062 
	C70.204376,493.289062 70.087196,493.095337 69.771118,493.098541 
	C68.694984,493.885590 67.934944,494.669464 67.174911,495.453339 
	C67.174911,495.453339 67.116364,495.769775 66.825516,495.880341 
	C66.534668,495.990906 66.037270,495.988251 65.832664,495.713867 
	C65.387764,493.585266 65.147476,491.731079 64.943130,489.932312 
	C64.979080,489.987732 64.878654,489.901886 65.255974,489.937378 
	C69.324707,489.636078 70.387703,486.998657 70.963692,483.953552 
	C70.989479,483.994690 70.911949,483.936157 71.289757,483.955627 
	C72.443253,482.977142 73.218941,481.979187 73.998047,480.989655 
	C74.001465,480.998108 73.983162,480.993927 74.357605,480.997070 
	C75.477249,479.981628 76.222443,478.963074 76.982155,477.972290 
	C76.996666,478.000092 76.943977,477.966095 77.312653,477.981415 
	C82.565979,475.647736 86.785522,472.687683 87.931068,466.912354 
	C87.962646,466.950195 87.865204,466.935150 88.131332,466.840759 
	C88.579514,466.428802 88.761559,466.111206 89.012405,465.591248 
	C89.247955,465.133484 89.482185,464.983612 90.056244,464.858398 
	C90.526962,464.467926 90.725349,464.158264 90.929688,463.899139 
	C90.935646,463.949646 90.857872,463.884094 91.249832,463.921661 
	C92.739120,462.575439 93.836449,461.191681 94.936386,459.587891 
	C94.938995,459.367920 94.846581,458.937744 94.846581,458.937744 
	C94.846581,458.937744 95.239792,458.890472 95.736176,458.829346 
	C96.460831,458.450165 96.689117,458.132080 96.909088,457.841797 
	C96.900780,457.869629 96.872566,457.814972 97.257751,457.882568 
	C98.424919,457.955627 99.206902,457.961090 99.953125,458.330048 
	C98.650620,461.452789 97.383881,464.212036 95.883591,467.480011 
	C97.614731,467.707581 98.819756,467.865967 100.024773,468.024414 
z"/>
<path fill="#D7AF56" opacity="1.000000" stroke="none" 
	d="
M113.050049,387.207428 
	C113.188408,386.421326 113.047874,385.370300 113.505997,384.887909 
	C124.283630,373.540527 135.125870,362.254456 146.628647,350.994354 
	C149.016830,352.537659 150.732620,354.043793 152.448395,355.549896 
	C152.448395,355.549896 152.220062,355.778961 151.723679,355.883606 
	C147.972015,354.639984 145.054291,355.203308 142.584473,357.679993 
	C139.948013,360.323792 137.372299,363.029968 134.820908,365.756470 
	C129.452789,371.493103 124.117889,377.260864 117.778870,384.081573 
	C121.231590,384.525024 123.098869,384.963440 124.968277,384.972748 
	C137.131546,385.033295 149.296021,384.937134 161.457901,385.079498 
	C162.966782,385.097137 164.462738,386.219635 165.501526,386.886963 
	C147.708923,387.031647 130.379486,387.119537 113.050049,387.207428 
z"/>
<path fill="#E4B853" opacity="1.000000" stroke="none" 
	d="
M368.939423,170.072845 
	C376.076569,171.124771 378.423035,164.769318 382.220734,161.061050 
	C387.891388,155.523895 392.910461,149.314011 398.123444,143.317917 
	C399.237457,142.036514 399.995117,140.445267 401.547821,138.005493 
	C396.972778,138.005493 393.544464,138.005676 390.116180,138.005447 
	C378.964294,138.004715 367.811615,138.066772 356.661377,137.930389 
	C355.116547,137.911514 353.583710,136.912140 352.027039,136.076752 
	C370.094452,135.786819 388.180206,135.786819 406.265930,135.786819 
	C406.485046,136.182114 406.704163,136.577423 406.923309,136.972717 
	C395.925934,148.969086 384.928589,160.965454 373.259033,173.026459 
	C371.371033,172.085022 370.155212,171.078934 368.939423,170.072845 
z"/>
<path fill="#FBF1BD" opacity="1.000000" stroke="none" 
	d="
M368.952332,170.059860 
	C370.155212,171.078934 371.371033,172.085022 372.939484,173.094421 
	C372.867859,173.729202 372.443634,174.360703 371.744812,175.086975 
	C359.516083,165.789276 346.818878,157.404846 332.617706,152.049042 
	C322.737366,148.322769 312.099640,146.626999 301.856354,143.819382 
	C300.137390,143.348221 297.965210,142.136063 297.380341,140.703690 
	C296.937988,139.620316 298.691132,137.640533 299.918701,136.196381 
	C300.370270,136.333054 300.274872,136.654755 300.106781,136.969208 
	C299.439911,138.206299 298.941132,139.128937 298.262390,140.384491 
	C306.192780,142.026428 313.612976,143.562744 321.033203,145.099075 
	C321.804535,145.402557 322.575836,145.706039 323.969788,146.203583 
	C328.731750,147.955597 332.871094,149.513535 337.010437,151.071457 
	C337.010437,151.071457 337.323700,151.189041 337.746674,151.430084 
	C342.085938,153.482727 346.002258,155.294342 349.918549,157.105942 
	C349.918549,157.105942 349.986572,157.093124 350.113068,157.388123 
	C354.100952,159.932968 357.962372,162.182785 361.823761,164.432617 
	C361.947784,164.677872 362.132751,164.861816 362.761414,165.304352 
	C363.718201,165.906006 364.292297,166.187714 364.866364,166.469421 
	C364.866364,166.469421 364.859589,166.747086 365.060852,167.158539 
	C366.152039,168.075714 367.041962,168.581421 367.931885,169.087128 
	C367.931885,169.087112 367.998779,169.062546 368.058929,169.291992 
	C368.400818,169.699844 368.682556,169.878265 368.964294,170.056671 
	C368.964294,170.056671 368.965240,170.046875 368.952332,170.059860 
z"/>
<path fill="#E4B853" opacity="1.000000" stroke="none" 
	d="
M451.093658,33.057316 
	C450.980194,31.961859 450.866730,30.866404 450.720886,29.458504 
	C441.911377,35.979458 433.558319,42.418247 424.933716,48.470013 
	C417.298676,53.827431 409.361450,58.754227 401.319397,63.512360 
	C402.067505,62.111637 403.053894,61.069695 404.040253,60.027748 
	C404.040253,60.027744 404.002655,59.997604 404.357330,59.982109 
	C406.803497,58.307819 408.894989,56.649025 410.986481,54.990242 
	C410.986481,54.990246 411.000000,55.000458 411.255096,54.946346 
	C411.688171,54.602863 411.866150,54.313492 412.044128,54.024124 
	C412.044159,54.024132 412.001801,53.997894 412.362427,53.975460 
	C419.954346,48.702087 427.185608,43.451145 434.416870,38.200207 
	C434.416870,38.200207 434.769409,38.126602 435.129211,37.970863 
	C435.666260,37.546795 435.843536,37.278469 436.020813,37.010143 
	C436.020813,37.010143 436.000000,36.998310 436.269592,36.966064 
	C436.742615,36.656410 436.946045,36.379002 437.149506,36.101601 
	C437.149506,36.101604 437.042877,36.041798 437.405090,36.033695 
	C439.291626,34.816807 440.815918,33.608021 442.340210,32.399235 
	C442.340210,32.399235 442.209351,32.137405 442.605957,32.168571 
	C444.307892,31.116276 445.613251,30.032812 446.918610,28.949341 
	C446.918610,28.949333 446.981049,29.000504 447.299377,28.895851 
	C449.716034,27.177017 451.814331,25.562836 453.912659,23.948650 
	C453.912659,23.948648 453.981079,23.992805 454.303406,23.944477 
	C455.889221,22.774723 457.152740,21.653294 458.416229,20.531864 
	C458.416229,20.531866 458.434082,20.446514 458.729675,20.423599 
	C459.349854,20.294878 459.674408,20.189072 460.229431,20.359070 
	C461.208405,21.568645 461.956909,22.502415 462.705414,23.436188 
	C462.705414,23.436190 462.575928,23.591911 462.234619,23.549057 
	C461.822021,23.802305 461.750702,24.098404 461.679352,24.394501 
	C461.679352,24.394501 461.579590,24.494532 461.217102,24.466244 
	C460.183350,25.449785 459.512085,26.461613 458.840820,27.473446 
	C458.840851,27.473452 458.730255,27.752747 458.348480,27.847530 
	C457.645081,28.285906 457.323456,28.629499 457.001831,28.973091 
	C457.001831,28.973091 456.976013,29.015608 456.775299,28.999491 
	C456.319550,29.052448 456.150391,29.212303 456.067078,29.462942 
	C455.495209,30.121666 454.923309,30.780390 453.901245,31.846115 
	C452.665283,32.521183 451.879456,32.789249 451.093658,33.057316 
z"/>
<path fill="#D7AF56" opacity="1.000000" stroke="none" 
	d="
M99.988884,457.966583 
	C99.206902,457.961090 98.424919,457.955627 97.384766,457.576416 
	C102.055046,452.119415 106.983482,447.036194 111.911911,441.952942 
	C112.194328,441.767151 112.476746,441.581360 113.111359,441.107239 
	C113.619835,440.534882 113.776115,440.250885 113.932396,439.966919 
	C113.932404,439.966919 113.996292,439.996582 114.229904,439.909912 
	C114.625023,439.539886 114.786530,439.256592 114.948036,438.973267 
	C114.948036,438.973267 114.997185,439.002106 115.295670,438.882263 
	C117.056862,437.171265 118.519562,435.580139 119.982254,433.988983 
	C119.982246,433.988983 120.000206,434.000000 120.314056,433.890259 
	C123.423584,430.857117 126.219261,427.933716 129.014938,425.010284 
	C129.014938,425.010284 128.999588,425.000000 129.259216,424.943726 
	C129.691025,424.598236 129.863220,424.308990 130.035400,424.019714 
	C130.035400,424.019714 130.000000,423.999573 130.328674,423.905304 
	C135.429291,418.867950 140.201202,413.924866 144.973114,408.981750 
	C144.973114,408.981750 144.999771,409.000824 145.250778,408.937714 
	C145.658829,408.579285 145.815872,408.283997 145.972916,407.988678 
	C145.972916,407.988678 146.001617,407.999847 146.238556,407.916931 
	C146.620880,407.541687 146.766251,407.249390 146.911621,406.957092 
	C146.911621,406.957092 146.989334,406.987244 147.214722,406.891724 
	C147.748367,406.596832 147.896225,406.313660 147.883698,405.946716 
	C147.883698,405.946716 147.972321,405.981018 148.268036,405.830719 
	C151.962585,402.393646 155.361435,399.106903 158.835068,396.197357 
	C158.630600,397.496338 158.621933,398.672516 158.030945,399.301239 
	C150.843307,406.947601 143.693573,414.636414 136.290833,422.072174 
	C124.285103,434.131470 112.098907,446.011108 99.988884,457.966583 
z"/>
<path fill="#2B1705" opacity="1.000000" stroke="none" 
	d="
M158.760284,395.820160 
	C155.361435,399.106903 151.962585,402.393646 148.248840,405.787231 
	C151.663773,401.252197 155.368713,396.589844 159.154022,391.993683 
	C159.643387,391.399506 160.548615,391.147827 161.261200,390.737488 
	C161.147873,390.276276 161.034561,389.815033 160.921234,389.353821 
	C159.553040,388.928650 158.178940,388.117493 156.817581,388.138428 
	C144.144272,388.332947 131.473923,388.721405 118.800552,388.907288 
	C117.059845,388.932861 115.307396,388.157990 113.305222,387.480530 
	C130.379486,387.119537 147.708923,387.031647 165.541443,387.002625 
	C166.044525,387.061493 166.288086,387.068207 166.149933,387.379456 
	C163.945221,390.071106 161.878677,392.451477 159.853561,394.876221 
	C159.894989,394.920624 159.881226,394.799957 159.610413,394.872833 
	C159.159515,395.258667 158.979416,395.571625 158.799225,395.862823 
	C158.799118,395.841064 158.760284,395.820160 158.760284,395.820160 
z"/>
<path fill="#2B1705" opacity="1.000000" stroke="none" 
	d="
M66.169380,497.151978 
	C64.262779,499.103577 62.541695,501.293060 60.409611,502.955475 
	C56.409813,506.074219 52.267742,509.039307 47.980598,511.744659 
	C46.524921,512.663269 44.453735,512.606384 42.663811,512.995239 
	C42.289951,512.459839 41.916096,511.924408 41.542240,511.388977 
	C44.701366,508.232605 47.860493,505.076202 51.464088,501.920532 
	C51.908558,501.921234 52.069881,502.071777 51.913200,502.365265 
	C49.864784,503.898926 47.973049,505.139069 46.081310,506.379242 
	C46.715958,507.114746 47.350605,507.850250 47.985252,508.585724 
	C50.685913,506.788879 53.386574,504.992035 56.387772,503.094818 
	C57.819962,502.079254 58.951611,501.164032 60.383678,500.138489 
	C60.977097,499.725464 61.270092,499.422821 61.799900,499.091370 
	C62.370045,498.745972 62.703384,498.429382 63.326134,498.024963 
	C63.907867,497.663879 64.200188,497.390564 64.718590,497.086243 
	C65.216118,496.903381 65.507309,496.823395 65.905197,496.900330 
	C65.992149,496.985382 66.169380,497.151978 66.169380,497.151978 
z"/>
<path fill="#FBF1C0" opacity="1.000000" stroke="none" 
	d="
M152.746170,355.699402 
	C150.732620,354.043793 149.016830,352.537659 146.951874,350.942505 
	C147.117020,350.179535 147.631363,349.505554 148.445312,348.709381 
	C157.248199,354.287384 165.765564,359.966827 174.236420,365.714844 
	C175.254715,366.405762 176.020935,367.468170 176.914810,368.721222 
	C171.025650,366.006622 165.096939,362.982422 159.240723,359.823853 
	C157.087021,358.662262 155.104523,357.183197 152.746170,355.699402 
z"/>
<path fill="#E4B853" opacity="1.000000" stroke="none" 
	d="
M398.345520,65.149155 
	C397.784424,66.479225 397.599518,68.308716 396.602356,69.059845 
	C389.084106,74.723122 381.438293,80.220016 373.742340,85.641106 
	C372.627747,86.426216 371.033264,86.530006 369.394196,86.657043 
	C369.424500,85.910797 369.721466,85.456589 370.018463,85.002396 
	C370.492249,84.671570 370.966003,84.340729 372.013245,83.831039 
	C374.047028,82.427704 375.507324,81.203232 376.967590,79.978760 
	C376.967590,79.978760 376.998322,80.002083 377.315491,79.887962 
	C380.096588,77.854538 382.560577,75.935234 385.024536,74.015930 
	C385.024536,74.015930 385.000000,73.998573 385.293152,73.966293 
	C385.862305,73.685043 386.138336,73.436066 386.414368,73.187088 
	C386.414368,73.187096 386.767181,73.092880 387.118408,72.933441 
	C387.770599,72.596680 387.940186,72.334373 387.978363,71.987083 
	C387.978363,71.987083 387.999115,72.001480 388.252014,71.944633 
	C388.688263,71.602486 388.871582,71.317192 389.054932,71.031906 
	C389.054932,71.031906 389.004028,70.998184 389.367920,70.979950 
	C392.603058,69.024200 395.474274,67.086678 398.345520,65.149155 
z"/>
<path fill="#E4B853" opacity="1.000000" stroke="none" 
	d="
M320.858948,144.759354 
	C313.612976,143.562744 306.192780,142.026428 298.262390,140.384491 
	C298.941132,139.128937 299.439911,138.206299 300.369080,136.889771 
	C301.965790,135.370651 303.132080,134.245438 304.298370,133.120209 
	C304.655609,132.872925 305.012848,132.625626 305.707458,132.288940 
	C306.398895,131.827560 306.752960,131.455566 307.107025,131.083557 
	C307.107025,131.083557 307.013397,131.018356 307.303619,130.998749 
	C307.785767,130.695419 307.977661,130.411697 308.169586,130.127975 
	C308.169586,130.127975 308.042816,130.051865 308.418793,130.112289 
	C309.425323,129.994843 310.055847,129.816971 310.781799,129.747040 
	C310.877228,129.854980 311.069672,130.069397 311.069672,130.069397 
	C308.490479,132.892242 305.911285,135.715103 302.867249,139.046692 
	C308.886688,140.861877 314.785706,142.640747 320.858948,144.759354 
z"/>
<path fill="#E4B853" opacity="1.000000" stroke="none" 
	d="
M417.510193,69.195969 
	C417.261078,68.589859 417.126953,67.737946 417.490326,67.337570 
	C422.452332,61.870628 427.452423,56.436981 432.537506,51.084789 
	C433.139984,50.450668 434.300018,50.346252 435.858398,50.003723 
	C436.710114,49.999710 436.904999,49.988251 437.099884,49.976788 
	C430.685425,56.371216 424.270935,62.765648 417.510193,69.195969 
z"/>
<path fill="#E4B853" opacity="1.000000" stroke="none" 
	d="
M333.653687,112.690201 
	C333.431061,113.610031 333.520477,114.969666 332.938293,115.382706 
	C325.947144,120.342751 318.856445,125.162521 311.430725,130.044159 
	C311.069672,130.069397 310.877228,129.854980 310.952515,129.481308 
	C312.086761,128.104202 313.145752,127.100761 314.204742,126.097321 
	C314.688202,125.842041 315.171661,125.586761 316.114990,125.026260 
	C318.071503,123.497147 319.568176,122.273262 321.064850,121.049385 
	C321.064850,121.049393 321.007599,120.998474 321.362213,120.981644 
	C323.826019,119.320305 325.935211,117.675789 328.044403,116.031281 
	C328.044403,116.031281 328.003418,115.997726 328.285706,115.988991 
	C328.770081,115.694176 328.972198,115.408104 329.174316,115.122025 
	C329.174316,115.122025 329.083466,115.098518 329.382599,115.104095 
	C330.074371,114.713303 330.467010,114.316917 330.859619,113.920525 
	C330.859619,113.920517 330.936066,113.962395 331.234802,113.891068 
	C332.240234,113.443222 332.946960,113.066704 333.653687,112.690201 
z"/>
<path fill="#261404" opacity="1.000000" stroke="none" 
	d="
M434.014862,38.143852 
	C427.185608,43.451145 419.954346,48.702087 412.374512,53.997169 
	C412.068359,53.713047 411.984985,53.249805 412.171417,53.076050 
	C418.612335,47.073082 425.014893,41.005981 434.014862,38.143852 
z"/>
<path fill="#BD9D5C" opacity="1.000000" stroke="none" 
	d="
M462.988007,23.303478 
	C461.956909,22.502415 461.208405,21.568645 460.392517,20.077654 
	C461.655518,18.414892 462.985840,17.309351 464.316193,16.203808 
	C466.633179,14.882439 468.950165,13.561072 471.267120,12.239705 
	C471.567657,12.632724 471.868164,13.025743 472.168671,13.418760 
	C469.202637,16.669432 466.236633,19.920101 462.988007,23.303478 
z"/>
<path fill="#2B1705" opacity="1.000000" stroke="none" 
	d="
M54.744675,498.681885 
	C56.818375,495.838623 58.575253,492.675781 61.042610,490.229614 
	C64.455475,486.846008 68.403214,484.001923 72.543175,480.944275 
	C72.964439,480.961731 73.095970,481.109192 72.959274,481.380005 
	C72.185715,482.412598 71.548843,483.174377 70.911957,483.936157 
	C70.911949,483.936157 70.989479,483.994690 70.653183,484.071289 
	C68.504143,486.065857 66.691399,487.983856 64.878647,489.901886 
	C64.878654,489.901886 64.979080,489.987732 64.629356,490.043152 
	C62.145657,492.292480 60.011681,494.486420 57.650230,496.789062 
	C57.237446,497.170105 57.052139,497.442505 56.610863,497.844025 
	C55.896576,498.310303 55.438251,498.647430 54.919834,498.909882 
	C54.859737,498.835205 54.744682,498.681885 54.744675,498.681885 
z"/>
<path fill="#261404" opacity="1.000000" stroke="none" 
	d="
M333.680389,112.698029 
	C332.946960,113.066704 332.240234,113.443222 331.232117,113.847565 
	C333.372681,106.633797 339.923767,104.564156 346.444885,101.901855 
	C346.886902,101.903275 347.043335,102.051735 346.882507,102.325470 
	C345.674011,103.553947 344.626373,104.508690 343.578705,105.463432 
	C343.578705,105.463432 343.523071,105.519936 343.168060,105.545792 
	C339.791473,107.962196 336.769897,110.352745 333.748322,112.743286 
	C333.748322,112.743286 333.707092,112.705856 333.680389,112.698029 
z"/>
<path fill="#2B1705" opacity="1.000000" stroke="none" 
	d="
M111.553024,441.954956 
	C106.983482,447.036194 102.055046,452.119415 96.999588,457.508820 
	C96.872566,457.814972 96.900780,457.869629 96.662766,457.845062 
	C96.424759,457.820496 95.932449,457.811371 95.932465,457.811371 
	C97.206734,455.804596 98.162071,453.469421 99.820808,451.858490 
	C103.421303,448.361755 107.381165,445.234985 111.553024,441.954956 
z"/>
<path fill="#E4B853" opacity="1.000000" stroke="none" 
	d="
M353.323669,133.868439 
	C352.809784,133.459427 352.275330,132.579926 352.438202,132.422684 
	C357.081116,127.940361 361.794159,123.530640 366.855286,119.130157 
	C362.685883,124.012329 358.156982,128.873444 353.323669,133.868439 
z"/>
<path fill="#2B1705" opacity="1.000000" stroke="none" 
	d="
M144.608246,408.975311 
	C140.201202,413.924866 135.429291,418.867950 130.340744,423.921631 
	C132.896423,417.248291 137.875351,412.452972 144.608246,408.975311 
z"/>
<path fill="#261404" opacity="1.000000" stroke="none" 
	d="
M398.390747,65.137405 
	C395.474274,67.086678 392.603058,69.024200 389.382812,71.006569 
	C391.984009,65.042793 397.644867,62.531071 403.665527,60.013939 
	C403.053894,61.069695 402.067505,62.111637 400.947815,63.432159 
	C400.814545,63.710743 400.849487,63.729351 400.549438,63.766685 
	C399.675842,64.241035 399.102356,64.678062 398.528839,65.115082 
	C398.528839,65.115082 398.436005,65.125664 398.390747,65.137405 
z"/>
<path fill="#2B1705" opacity="1.000000" stroke="none" 
	d="
M94.490921,458.938599 
	C94.846581,458.937744 94.938995,459.367920 94.629883,459.708069 
	C93.166473,461.326843 92.012184,462.605469 90.857880,463.884094 
	C90.857872,463.884094 90.935646,463.949646 90.658661,463.979980 
	C90.182411,464.319916 89.983154,464.629578 89.783905,464.939240 
	C89.482185,464.983612 89.247955,465.133484 88.748192,465.689575 
	C88.231850,466.305267 88.048531,466.620209 87.865204,466.935150 
	C87.865204,466.935150 87.962646,466.950195 87.624519,467.032593 
	C85.533363,468.752228 83.780334,470.389435 81.959961,471.963898 
	C81.892609,471.901123 81.758148,471.775330 81.758148,471.775330 
	C85.883858,467.496704 90.009560,463.218079 94.490921,458.938599 
z"/>
<path fill="#E4B853" opacity="1.000000" stroke="none" 
	d="
M367.641357,87.749435 
	C366.462311,92.817574 362.422577,94.405182 357.912354,95.215118 
	C359.173523,93.544174 360.594391,92.272720 362.015259,91.001266 
	C362.343231,90.966438 362.624756,90.833351 363.298065,90.344490 
	C365.037994,89.307808 366.339691,88.528625 367.641357,87.749435 
z"/>
<path fill="#2B1705" opacity="1.000000" stroke="none" 
	d="
M128.648972,425.001648 
	C126.219261,427.933716 123.423584,430.857117 120.308403,433.881470 
	C120.904678,429.279999 123.975883,426.566315 128.648972,425.001648 
z"/>
<path fill="#261404" opacity="1.000000" stroke="none" 
	d="
M361.631653,90.990936 
	C360.594391,92.272720 359.173523,93.544174 357.549194,95.062798 
	C357.345764,95.309967 357.335541,95.377579 357.045227,95.459732 
	C355.851288,96.044182 354.947601,96.546478 353.972778,96.966049 
	C353.901672,96.883308 353.767395,96.711365 353.767395,96.711365 
	C354.020508,91.876541 358.224518,92.199028 361.631653,90.990936 
z"/>
<path fill="#261404" opacity="1.000000" stroke="none" 
	d="
M384.645325,74.008339 
	C382.560577,75.935234 380.096588,77.854538 377.306213,79.871414 
	C377.115234,75.179771 381.088318,75.075722 384.645325,74.008339 
z"/>
<path fill="#261404" opacity="1.000000" stroke="none" 
	d="
M453.525604,23.949883 
	C451.814331,25.562836 449.716034,27.177017 447.285706,28.857895 
	C446.895721,27.812008 446.837769,26.699421 446.772278,25.441813 
	C448.873932,24.949699 451.006226,24.450405 453.525604,23.949883 
z"/>
<path fill="#261404" opacity="1.000000" stroke="none" 
	d="
M367.676849,87.759239 
	C366.339691,88.528625 365.037994,89.307808 363.408539,90.134735 
	C363.328033,86.314896 365.737000,85.007812 369.625793,84.995392 
	C369.721466,85.456589 369.424500,85.910797 369.005493,86.614777 
	C368.883484,86.864555 368.914825,86.921555 368.649841,86.937042 
	C368.172424,87.246246 367.960022,87.539955 367.747620,87.833664 
	C367.747620,87.833672 367.712341,87.769043 367.676849,87.759239 
z"/>
<path fill="#261404" opacity="1.000000" stroke="none" 
	d="
M463.987610,16.046570 
	C462.985840,17.309351 461.655518,18.414892 460.162048,19.801847 
	C459.674408,20.189072 459.349854,20.294878 458.771698,20.435280 
	C457.943878,16.375282 459.866211,15.082691 463.987610,16.046570 
z"/>
<path fill="#E4B853" opacity="1.000000" stroke="none" 
	d="
M396.555023,90.268303 
	C397.646332,88.561386 399.092529,86.846863 400.906372,85.166168 
	C399.819336,86.886887 398.364624,88.573792 396.555023,90.268303 
z"/>
<path fill="#261404" opacity="1.000000" stroke="none" 
	d="
M346.804749,101.833420 
	C348.835510,100.133461 350.948425,98.503342 353.414368,96.792297 
	C353.767395,96.711365 353.901672,96.883308 353.791290,97.242218 
	C351.468384,99.084663 349.255859,100.568199 347.043335,102.051743 
	C347.043335,102.051735 346.886902,101.903275 346.804749,101.833420 
z"/>
<path fill="#261404" opacity="1.000000" stroke="none" 
	d="
M327.670929,116.008316 
	C325.935211,117.675789 323.826019,119.320305 321.380127,121.015450 
	C323.128113,119.372498 325.212799,117.678917 327.670929,116.008316 
z"/>
<path fill="#261404" opacity="1.000000" stroke="none" 
	d="
M410.616699,54.985119 
	C408.894989,56.649025 406.803497,58.307819 404.368225,60.003399 
	C406.098633,58.353458 408.172791,56.666733 410.616699,54.985119 
z"/>
<path fill="#261404" opacity="1.000000" stroke="none" 
	d="
M313.824066,126.061340 
	C313.145752,127.100761 312.086761,128.104202 310.857086,129.373367 
	C310.055847,129.816971 309.425323,129.994843 308.463898,130.170868 
	C309.903137,128.787796 311.673248,127.406578 313.824066,126.061340 
z"/>
<path fill="#261404" opacity="1.000000" stroke="none" 
	d="
M304.176331,132.726898 
	C303.132080,134.245438 301.965790,135.370651 300.537170,136.575317 
	C300.274872,136.654755 300.370270,136.333054 300.306488,136.177399 
	C300.741882,134.555527 301.241089,133.089310 301.928650,131.313004 
	C302.762787,131.446472 303.408539,131.890030 304.176331,132.726898 
z"/>
<path fill="#2B1705" opacity="1.000000" stroke="none" 
	d="
M74.957344,478.906586 
	C76.329567,477.238770 77.701805,475.570953 79.493538,473.904968 
	C79.913040,473.906830 80.050026,474.052856 79.918427,474.339294 
	C78.839211,475.739166 77.891594,476.852631 76.943977,477.966095 
	C76.943977,477.966095 76.996666,478.000092 76.707420,478.046814 
	C75.931236,478.364532 75.444298,478.635559 74.957344,478.906586 
z"/>
<path fill="#261404" opacity="1.000000" stroke="none" 
	d="
M320.675049,121.016907 
	C319.568176,122.273262 318.071503,123.497147 316.253723,124.785233 
	C315.835449,121.817757 317.553833,120.830650 320.675049,121.016907 
z"/>
<path fill="#2B1705" opacity="1.000000" stroke="none" 
	d="
M119.612091,433.982544 
	C118.519562,435.580139 117.056862,437.171265 115.281158,438.857849 
	C116.392746,437.294250 117.817329,435.635193 119.612091,433.982544 
z"/>
<path fill="#261404" opacity="1.000000" stroke="none" 
	d="
M458.036438,20.380589 
	C457.152740,21.653294 455.889221,22.774723 454.290161,23.905977 
	C453.967102,21.460287 454.745056,19.773460 458.036438,20.380589 
z"/>
<path fill="#E4B853" opacity="1.000000" stroke="none" 
	d="
M373.500793,113.103081 
	C374.619934,111.524612 376.058289,109.825134 377.873077,108.151489 
	C376.773010,109.778908 375.296478,111.380493 373.500793,113.103081 
z"/>
<path fill="#261404" opacity="1.000000" stroke="none" 
	d="
M441.960907,32.282845 
	C440.815918,33.608021 439.291626,34.816807 437.437866,36.085304 
	C438.599426,34.818829 440.090515,33.492641 441.960907,32.282845 
z"/>
<path fill="#E4B853" opacity="1.000000" stroke="none" 
	d="
M389.480713,97.080818 
	C388.805908,94.672211 389.515808,92.988701 392.847595,93.126282 
	C392.097717,94.436966 390.949127,95.697357 389.480713,97.080818 
z"/>
<path fill="#261404" opacity="1.000000" stroke="none" 
	d="
M446.507141,28.944502 
	C445.613251,30.032812 444.307892,31.116276 442.694275,32.285248 
	C441.320892,28.738565 443.913910,29.061443 446.507141,28.944502 
z"/>
<path fill="#261404" opacity="1.000000" stroke="none" 
	d="
M376.588074,79.970093 
	C375.507324,81.203232 374.047028,82.427704 372.266327,83.683014 
	C371.868378,80.760857 373.603760,79.867310 376.588074,79.970093 
z"/>
<path fill="#BD9D5C" opacity="1.000000" stroke="none" 
	d="
M449.060272,36.027252 
	C449.362579,35.919888 449.611908,35.739342 450.146912,35.251228 
	C450.485565,35.016830 450.931305,34.932343 451.026917,35.037292 
	C451.122498,35.142239 451.310669,35.354855 451.310669,35.354851 
	C450.178528,36.594482 449.046387,37.834122 447.527466,39.105495 
	C447.140625,39.137230 446.950165,38.948265 447.107086,38.691723 
	C447.862762,37.632538 448.461517,36.829895 449.060272,36.027252 
z"/>
<path fill="#E4B853" opacity="1.000000" stroke="none" 
	d="
M381.521484,105.221138 
	C381.930389,104.193802 382.678436,103.138359 383.825623,102.132698 
	C383.436737,103.185997 382.648682,104.189514 381.521484,105.221138 
z"/>
<path fill="#BD9D5C" opacity="1.000000" stroke="none" 
	d="
M451.078186,33.048565 
	C451.879456,32.789249 452.665283,32.521183 453.745605,32.136642 
	C453.322357,33.033695 452.604553,34.047222 451.598694,35.207802 
	C451.310669,35.354855 451.122498,35.142239 451.070007,34.726246 
	C451.024567,33.891083 451.031616,33.471916 451.038666,33.052746 
	C451.038666,33.052746 451.062744,33.039814 451.078186,33.048565 
z"/>
<path fill="#D7AF56" opacity="1.000000" stroke="none" 
	d="
M74.849930,479.132874 
	C75.444298,478.635559 75.931236,478.364532 76.692909,478.019012 
	C76.222443,478.963074 75.477249,479.981628 74.369232,480.745422 
	C73.996948,480.322998 73.987488,480.155334 73.978020,479.987671 
	C74.232841,479.778137 74.487679,479.568634 74.849930,479.132874 
z"/>
<path fill="#E4B853" opacity="1.000000" stroke="none" 
	d="
M413.489563,73.126495 
	C413.936829,72.181885 414.682770,71.131401 415.826660,70.129631 
	C415.412506,71.125763 414.600372,72.073181 413.489563,73.126495 
z"/>
<path fill="#BD9D5C" opacity="1.000000" stroke="none" 
	d="
M459.105316,27.364510 
	C459.512085,26.461613 460.183350,25.449785 461.178131,24.525181 
	C460.791077,25.493462 460.080444,26.374519 459.105316,27.364510 
z"/>
<path fill="#2B1705" opacity="1.000000" stroke="none" 
	d="
M51.825050,501.849121 
	C52.524403,500.815582 53.307270,499.854095 54.417408,498.787262 
	C54.744682,498.681885 54.859737,498.835205 54.904476,499.112549 
	C54.949215,499.389862 54.917206,499.795013 54.647240,499.941223 
	C53.608143,500.748871 52.839012,501.410339 52.069878,502.071777 
	C52.069881,502.071777 51.908558,501.921234 51.825050,501.849121 
z"/>
<path fill="#E4B853" opacity="1.000000" stroke="none" 
	d="
M406.459167,80.100815 
	C406.918091,79.164223 407.675812,78.123009 408.830383,77.133026 
	C408.404144,78.121567 407.581024,79.058876 406.459167,80.100815 
z"/>
<path fill="#CCAA64" opacity="1.000000" stroke="none" 
	d="
M67.490891,495.375244 
	C67.934944,494.669464 68.694984,493.885590 69.851746,493.178040 
	C69.434601,493.935242 68.620735,494.616180 67.490891,495.375244 
z"/>
<path fill="#E4B853" opacity="1.000000" stroke="none" 
	d="
M393.523773,93.226135 
	C393.627838,92.549278 394.082092,91.850021 394.897308,91.164688 
	C394.796844,91.853653 394.335419,92.528694 393.523773,93.226135 
z"/>
<path fill="#E4B853" opacity="1.000000" stroke="none" 
	d="
M439.089020,46.126411 
	C439.537140,45.455986 439.985260,44.785561 440.792664,44.455086 
	C441.202026,45.032673 441.252136,45.270302 441.302246,45.507927 
	C441.239868,45.781616 441.091888,45.996243 440.326477,46.156525 
	C439.559479,46.149632 439.324249,46.138020 439.089020,46.126411 
z"/>
<path fill="#CCAA64" opacity="1.000000" stroke="none" 
	d="
M74.162674,490.619873 
	C74.095261,490.210907 74.304176,489.736603 74.730728,489.110535 
	C75.133034,488.972137 75.317703,488.985474 75.778992,489.021118 
	C75.516731,489.547119 74.977867,490.050812 74.162674,490.619873 
z"/>
<path fill="#CCAA64" opacity="1.000000" stroke="none" 
	d="
M71.718140,492.418671 
	C71.958038,491.961609 72.471832,491.434631 73.312775,490.884460 
	C73.090614,491.357117 72.541328,491.852966 71.718140,492.418671 
z"/>
<path fill="#261404" opacity="1.000000" stroke="none" 
	d="
M330.557983,113.941261 
	C330.467010,114.316917 330.074371,114.713303 329.393677,115.149689 
	C329.489197,114.780464 329.872742,114.371223 330.557983,113.941261 
z"/>
<path fill="#BD9D5C" opacity="1.000000" stroke="none" 
	d="
M457.262787,29.024038 
	C457.323456,28.629499 457.645081,28.285906 458.204041,27.888708 
	C458.135498,28.248398 457.829620,28.661692 457.262787,29.024038 
z"/>
<path fill="#CCAA64" opacity="1.000000" stroke="none" 
	d="
M70.461746,493.255127 
	C70.412178,492.988922 70.619972,492.688782 71.118462,492.439514 
	C71.179146,492.734009 70.949127,492.977600 70.461746,493.255127 
z"/>
<path fill="#BD9D5C" opacity="1.000000" stroke="none" 
	d="
M441.544128,45.421295 
	C441.252136,45.270302 441.202026,45.032673 441.131165,44.432335 
	C441.319611,44.113560 441.528839,44.157490 442.026245,44.343666 
	C442.138275,44.768833 441.962158,45.051750 441.544128,45.421295 
z"/>
<path fill="#BD9D5C" opacity="1.000000" stroke="none" 
	d="
M461.851318,24.341114 
	C461.750702,24.098404 461.822021,23.802305 462.148560,23.602440 
	C462.368988,23.954470 462.242157,24.150820 461.851318,24.341114 
z"/>
<path fill="#2B1705" opacity="1.000000" stroke="none" 
	d="
M66.037270,495.988251 
	C66.037270,495.988251 66.534668,495.990906 66.779503,496.034515 
	C66.976585,496.408691 66.821068,496.676666 66.363586,497.017029 
	C66.169380,497.151978 65.992149,496.985382 65.962532,496.694275 
	C65.932915,496.403168 66.037270,495.988251 66.037270,495.988251 
z"/>
<path fill="#2B1705" opacity="1.000000" stroke="none" 
	d="
M147.661575,406.032349 
	C147.896225,406.313660 147.748367,406.596832 147.197754,406.853668 
	C146.998734,406.574677 147.160095,406.310303 147.661575,406.032349 
z"/>
<path fill="#2B1705" opacity="1.000000" stroke="none" 
	d="
M73.743057,480.053619 
	C73.987488,480.155334 73.996948,480.322998 73.994789,480.742310 
	C73.983162,480.993927 74.001465,480.998108 73.772575,481.016113 
	C73.543686,481.034119 73.095970,481.109192 73.095970,481.109192 
	C73.095970,481.109192 72.964439,480.961731 72.897385,480.886292 
	C72.999512,480.524811 73.225433,480.294373 73.743057,480.053619 
z"/>
<path fill="#2B1705" opacity="1.000000" stroke="none" 
	d="
M79.844315,473.834045 
	C79.955399,473.499207 80.160583,473.258820 80.642731,472.963318 
	C80.894341,472.886536 81.015511,473.015320 80.929726,473.250519 
	C80.579300,473.674744 80.314659,473.863800 80.050018,474.052856 
	C80.050026,474.052856 79.913040,473.906830 79.844315,473.834045 
z"/>
<path fill="#2B1705" opacity="1.000000" stroke="none" 
	d="
M146.682587,407.046936 
	C146.766251,407.249390 146.620880,407.541687 146.231323,407.903168 
	C146.009933,407.619751 146.165405,407.341248 146.682587,407.046936 
z"/>
<path fill="#2B1705" opacity="1.000000" stroke="none" 
	d="
M114.713478,439.048035 
	C114.786530,439.256592 114.625023,439.539886 114.215149,439.877930 
	C114.010117,439.582123 114.180832,439.312164 114.713478,439.048035 
z"/>
<path fill="#2B1705" opacity="1.000000" stroke="none" 
	d="
M145.740524,408.073486 
	C145.815872,408.283997 145.658829,408.579285 145.243866,408.923065 
	C145.041260,408.624207 145.215317,408.353119 145.740524,408.073486 
z"/>
<path fill="#2B1705" opacity="1.000000" stroke="none" 
	d="
M80.833771,472.822144 
	C80.953949,472.503448 81.161194,472.272919 81.576538,471.920776 
	C81.758148,471.775330 81.892609,471.901123 81.868980,472.196716 
	C81.568741,472.666687 81.292130,472.841003 81.015518,473.015320 
	C81.015511,473.015320 80.894341,472.886536 80.833771,472.822144 
z"/>
<path fill="#2B1705" opacity="1.000000" stroke="none" 
	d="
M129.791504,424.098053 
	C129.863220,424.308990 129.691025,424.598236 129.263702,424.951843 
	C129.188263,424.736267 129.367935,424.456329 129.791504,424.098053 
z"/>
<path fill="#D7AF56" opacity="1.000000" stroke="none" 
	d="
M95.835976,458.072998 
	C95.932449,457.811371 96.424759,457.820496 96.671082,457.817261 
	C96.689117,458.132080 96.460831,458.450165 95.934143,458.825378 
	C95.670326,458.699951 95.704918,458.517303 95.835976,458.072998 
z"/>
<path fill="#BD9D5C" opacity="1.000000" stroke="none" 
	d="
M456.230286,29.415672 
	C456.150391,29.212303 456.319550,29.052448 456.756836,28.982841 
	C456.810699,29.186670 456.628815,29.315369 456.230286,29.415672 
z"/>
<path fill="#2B1705" opacity="1.000000" stroke="none" 
	d="
M113.701630,440.043915 
	C113.776115,440.250885 113.619835,440.534882 113.215576,440.871216 
	C113.010216,440.577545 113.177979,440.309967 113.701630,440.043915 
z"/>
<path fill="#E4B853" opacity="1.000000" stroke="none" 
	d="
M403.402771,83.253021 
	C403.311920,83.017654 403.501099,82.671204 403.981140,82.228561 
	C404.075592,82.468895 403.879211,82.805420 403.402771,83.253021 
z"/>
<path fill="#E4B853" opacity="1.000000" stroke="none" 
	d="
M380.425598,106.181213 
	C380.333221,105.936798 380.516968,105.613731 380.980713,105.215935 
	C381.074371,105.461655 380.888062,105.782112 380.425598,106.181213 
z"/>
<path fill="#261404" opacity="1.000000" stroke="none" 
	d="
M411.806091,54.104988 
	C411.866150,54.313492 411.688171,54.602863 411.251282,54.939095 
	C411.184296,54.719254 411.376190,54.452553 411.806091,54.104988 
z"/>
<path fill="#E4B853" opacity="1.000000" stroke="none" 
	d="
M384.414764,102.164337 
	C384.327240,101.928299 384.510956,101.608032 384.971008,101.208359 
	C385.060181,101.446007 384.873077,101.763054 384.414764,102.164337 
z"/>
<path fill="#E4B853" opacity="1.000000" stroke="none" 
	d="
M385.408417,101.162003 
	C385.319427,100.923271 385.504120,100.603691 385.964355,100.203812 
	C386.053955,100.442726 385.868011,100.761940 385.408417,101.162003 
z"/>
<path fill="#E4B853" opacity="1.000000" stroke="none" 
	d="
M386.400146,100.153610 
	C386.314697,99.919250 386.500732,99.601227 386.961243,99.202225 
	C387.047668,99.437469 386.859650,99.753700 386.400146,100.153610 
z"/>
<path fill="#E4B853" opacity="1.000000" stroke="none" 
	d="
M387.396851,99.149139 
	C387.313080,98.916061 387.499939,98.599136 387.960999,98.201584 
	C388.045929,98.435738 387.856720,98.750511 387.396851,99.149139 
z"/>
<path fill="#E4B853" opacity="1.000000" stroke="none" 
	d="
M388.398254,98.149605 
	C388.311493,97.914589 388.496948,97.597542 388.955536,97.198608 
	C389.042572,97.433678 388.856506,97.750626 388.398254,98.149605 
z"/>
<path fill="#E4B853" opacity="1.000000" stroke="none" 
	d="
M395.429749,91.192291 
	C395.336487,90.940292 395.525452,90.617569 395.998383,90.226776 
	C396.092224,90.479652 395.902069,90.800606 395.429749,91.192291 
z"/>
<path fill="#E4B853" opacity="1.000000" stroke="none" 
	d="
M401.444977,85.203018 
	C401.365601,84.947639 401.582642,84.611618 402.099854,84.195488 
	C402.180481,84.451042 401.960968,84.786705 401.444977,85.203018 
z"/>
<path fill="#E4B853" opacity="1.000000" stroke="none" 
	d="
M379.414581,107.170860 
	C379.326843,106.928986 379.514771,106.609215 379.982422,106.216782 
	C380.071503,106.460411 379.880890,106.776688 379.414581,107.170860 
z"/>
<path fill="#E4B853" opacity="1.000000" stroke="none" 
	d="
M404.428345,82.177673 
	C404.333130,81.938187 404.510010,81.613441 404.962189,81.204445 
	C405.058472,81.444260 404.879456,81.768333 404.428345,82.177673 
z"/>
<path fill="#E4B853" opacity="1.000000" stroke="none" 
	d="
M405.398132,81.151001 
	C405.311920,80.916275 405.497589,80.598930 405.956543,80.199234 
	C406.043243,80.434044 405.856598,80.751213 405.398132,81.151001 
z"/>
<path fill="#E4B853" opacity="1.000000" stroke="none" 
	d="
M409.415070,77.165726 
	C409.325165,76.928673 409.506622,76.607124 409.963837,76.204674 
	C410.055176,76.442932 409.870819,76.762077 409.415070,77.165726 
z"/>
<path fill="#E4B853" opacity="1.000000" stroke="none" 
	d="
M410.401184,76.152771 
	C410.314423,75.917999 410.499512,75.599716 410.958771,75.200096 
	C411.046295,75.435593 410.859680,75.752419 410.401184,76.152771 
z"/>
<path fill="#E4B853" opacity="1.000000" stroke="none" 
	d="
M411.397705,75.154312 
	C411.316864,74.917641 411.510254,74.602089 411.982941,74.216171 
	C412.065460,74.455681 411.868713,74.765556 411.397705,75.154312 
z"/>
<path fill="#E4B853" opacity="1.000000" stroke="none" 
	d="
M412.428406,74.184097 
	C412.333618,73.937263 412.516693,73.613831 412.979706,73.215401 
	C413.075165,73.462776 412.890686,73.785141 412.428406,74.184097 
z"/>
<path fill="#261404" opacity="1.000000" stroke="none" 
	d="
M386.120056,73.202438 
	C386.138336,73.436066 385.862305,73.685043 385.298920,73.980026 
	C385.282959,73.756615 385.554352,73.487198 386.120056,73.202438 
z"/>
<path fill="#261404" opacity="1.000000" stroke="none" 
	d="
M387.755951,72.041977 
	C387.940186,72.334373 387.770599,72.596680 387.228516,72.787796 
	C387.059814,72.481705 387.241852,72.246803 387.755951,72.041977 
z"/>
<path fill="#261404" opacity="1.000000" stroke="none" 
	d="
M388.815338,71.109077 
	C388.871582,71.317192 388.688263,71.602486 388.246582,71.933754 
	C388.184052,71.715233 388.379913,71.450745 388.815338,71.109077 
z"/>
<path fill="#E4B853" opacity="1.000000" stroke="none" 
	d="
M416.410828,70.161819 
	C416.324432,69.927803 416.508545,69.607483 416.968689,69.206772 
	C417.056915,69.442749 416.869141,69.759132 416.410828,70.161819 
z"/>
<path fill="#261404" opacity="1.000000" stroke="none" 
	d="
M307.911316,130.191650 
	C307.977661,130.411697 307.785767,130.695419 307.335419,131.046097 
	C307.269012,130.827148 307.461029,130.541245 307.911316,130.191650 
z"/>
<path fill="#261404" opacity="1.000000" stroke="none" 
	d="
M435.789062,37.061340 
	C435.843536,37.278469 435.666260,37.546795 435.238220,37.827530 
	C435.064514,37.509037 435.254486,37.266571 435.789062,37.061340 
z"/>
<path fill="#BD9D5C" opacity="1.000000" stroke="none" 
	d="
M447.236877,39.230648 
	C447.269257,39.667599 447.098358,39.945286 446.492310,40.159424 
	C446.164215,40.161716 445.964417,39.963940 446.090820,39.760483 
	C446.417786,39.301380 446.662079,39.098457 446.950165,38.948265 
	C446.950165,38.948265 447.140625,39.137230 447.236877,39.230648 
z"/>
<path fill="#BD9D5C" opacity="1.000000" stroke="none" 
	d="
M446.264526,40.260159 
	C446.292755,40.700844 446.112946,40.971573 445.495331,41.166748 
	C445.165192,41.162720 444.965637,40.965176 445.092865,40.762016 
	C445.423431,40.304550 445.671539,40.106243 445.964417,39.963940 
	C445.964417,39.963940 446.164215,40.161716 446.264526,40.260159 
z"/>
<path fill="#BD9D5C" opacity="1.000000" stroke="none" 
	d="
M445.265381,41.261047 
	C445.295776,41.703064 445.116547,41.974483 444.496857,42.168476 
	C444.165863,42.163319 443.966431,41.965862 444.093811,41.762833 
	C444.424652,41.305691 444.672821,41.107479 444.965637,40.965176 
	C444.965637,40.965176 445.165192,41.162720 445.265381,41.261047 
z"/>
<path fill="#BD9D5C" opacity="1.000000" stroke="none" 
	d="
M444.266052,42.261574 
	C444.297089,42.702553 444.118927,42.973679 443.500183,43.168045 
	C443.168579,43.162888 442.966858,42.958984 443.094116,42.756844 
	C443.425995,42.303047 443.674316,42.106766 443.966431,41.965862 
	C443.966431,41.965862 444.165863,42.163319 444.266052,42.261574 
z"/>
<path fill="#BD9D5C" opacity="1.000000" stroke="none" 
	d="
M442.711487,44.234154 
	C442.394989,44.117413 442.297699,43.924984 442.355469,43.384811 
	C442.510590,43.037067 442.966858,42.958984 442.966858,42.958984 
	C442.966858,42.958984 443.168579,43.162888 443.271057,43.263382 
	C443.333740,43.688847 443.186127,43.953709 442.711487,44.234154 
z"/>
<path fill="#BD9D5C" opacity="1.000000" stroke="none" 
	d="
M439.174225,46.445259 
	C439.324249,46.138020 439.559479,46.149632 440.141296,46.230362 
	C440.462494,46.644302 440.314545,46.924358 439.821045,47.235172 
	C439.485168,47.141838 439.372314,46.952972 439.174225,46.445259 
z"/>
<path fill="#261404" opacity="1.000000" stroke="none" 
	d="
M306.672363,131.210876 
	C306.752960,131.455566 306.398895,131.827560 305.815796,132.083862 
	C305.803741,131.758179 306.020721,131.548187 306.672363,131.210876 
z"/>
<path fill="#BD9D5C" opacity="1.000000" stroke="none" 
	d="
M438.795959,48.317055 
	C438.678619,48.074123 438.762512,47.754623 439.126282,47.471889 
	C439.385773,47.817364 439.249481,48.061310 438.795959,48.317055 
z"/>
<path fill="#261404" opacity="1.000000" stroke="none" 
	d="
M436.888428,36.148605 
	C436.946045,36.379002 436.742615,36.656410 436.273865,36.977013 
	C436.214844,36.745338 436.421082,36.470474 436.888428,36.148605 
z"/>
<path fill="#BD9D5C" opacity="1.000000" stroke="none" 
	d="
M437.797668,49.326344 
	C437.690094,49.079868 437.777771,48.769150 438.138000,48.519333 
	C438.380371,48.874256 438.241150,49.101547 437.797668,49.326344 
z"/>
<path fill="#E4B853" opacity="1.000000" stroke="none" 
	d="
M367.388672,119.138672 
	C367.318939,118.906776 367.528168,118.588486 368.018555,118.184494 
	C368.089050,118.416618 367.878387,118.734444 367.388672,119.138672 
z"/>
<path fill="#E4B853" opacity="1.000000" stroke="none" 
	d="
M369.377686,117.210686 
	C369.294220,116.985390 369.484436,116.647301 369.958008,116.209778 
	C370.044678,116.439522 369.848022,116.768707 369.377686,117.210686 
z"/>
<path fill="#E4B853" opacity="1.000000" stroke="none" 
	d="
M370.401611,116.154755 
	C370.315033,115.918259 370.501648,115.600426 370.963287,115.202774 
	C371.050446,115.439789 370.862610,115.756607 370.401611,116.154755 
z"/>
<path fill="#261404" opacity="1.000000" stroke="none" 
	d="
M328.908569,115.165695 
	C328.972198,115.408104 328.770081,115.694176 328.295288,116.013618 
	C328.229340,115.767776 328.436066,115.488564 328.908569,115.165695 
z"/>
<path fill="#E4B853" opacity="1.000000" stroke="none" 
	d="
M371.400452,115.155869 
	C371.317291,114.919960 371.507172,114.602951 371.974091,114.209763 
	C372.058594,114.447304 371.866058,114.761032 371.400452,115.155869 
z"/>
<path fill="#E4B853" opacity="1.000000" stroke="none" 
	d="
M372.413940,114.169983 
	C372.324249,113.928085 372.510284,113.608063 372.973999,113.211281 
	C373.064331,113.453629 372.876984,113.772743 372.413940,114.169983 
z"/>
<path fill="#BD9D5C" opacity="1.000000" stroke="none" 
	d="
M437.223541,49.928162 
	C436.904999,49.988251 436.710114,49.999710 436.222046,49.997589 
	C436.245941,49.792912 436.563019,49.601814 437.145660,49.516159 
	C437.411224,49.621605 437.347198,49.879536 437.223541,49.928162 
z"/>
<path fill="#E4B853" opacity="1.000000" stroke="none" 
	d="
M378.419678,108.174583 
	C378.328796,107.933472 378.512085,107.611397 378.973236,107.211426 
	C379.065369,107.453560 378.879639,107.773590 378.419678,108.174583 
z"/>
<path fill="#FBF1C0" opacity="1.000000" stroke="none" 
	d="
M209.013580,379.360687 
	C198.525940,376.338623 187.929260,372.994690 177.137924,369.363525 
	C180.000427,369.728455 183.145172,370.114258 186.097702,371.084778 
	C193.745163,373.598694 201.307953,376.370209 209.013580,379.360687 
z"/>
<path fill="#FBF1C0" opacity="1.000000" stroke="none" 
	d="
M220.660889,384.970337 
	C219.416962,379.674438 214.441788,382.056519 211.259888,380.213593 
	C213.664169,379.706787 216.468887,378.863434 218.977112,379.401703 
	C221.409805,379.923767 223.201538,381.982758 220.660889,384.970337 
z"/>
<path fill="#E4B853" opacity="1.000000" stroke="none" 
	d="
M346.882507,102.325470 
	C349.255859,100.568199 351.468384,99.084663 353.862427,97.324951 
	C354.947601,96.546478 355.851288,96.044182 357.045410,95.493919 
	C357.034729,96.394569 357.030334,97.786888 356.383911,98.219177 
	C352.441010,100.855911 348.352234,103.274529 343.945435,105.614670 
	C344.626373,104.508690 345.674011,103.553947 346.882507,102.325470 
z"/>
<path fill="#E4B853" opacity="1.000000" stroke="none" 
	d="
M361.844421,164.052185 
	C357.962372,162.182785 354.100952,159.932968 350.080566,157.382477 
	C355.555420,156.283142 358.413239,160.515747 361.844421,164.052185 
z"/>
<path fill="#E4B853" opacity="1.000000" stroke="none" 
	d="
M336.966797,150.698227 
	C332.871094,149.513535 328.731750,147.955597 324.282349,146.217407 
	C327.049072,144.946503 334.260803,147.334198 336.966797,150.698227 
z"/>
<path fill="#E4B853" opacity="1.000000" stroke="none" 
	d="
M334.131439,112.824326 
	C336.769897,110.352745 339.791473,107.962196 343.133057,105.527130 
	C342.318878,110.179001 338.441162,111.571609 334.131439,112.824326 
z"/>
<path fill="#E4B853" opacity="1.000000" stroke="none" 
	d="
M349.897797,156.749496 
	C346.002258,155.294342 342.085938,153.482727 337.913147,151.413727 
	C341.730103,152.901901 345.803589,154.647476 349.897797,156.749496 
z"/>
<path fill="#E4B853" opacity="1.000000" stroke="none" 
	d="
M443.094116,42.756844 
	C442.966858,42.958984 442.510590,43.037067 442.281860,43.069851 
	C443.044983,39.783314 443.741638,36.204590 448.673828,36.017769 
	C448.461517,36.829895 447.862762,37.632538 447.107086,38.691723 
	C446.662079,39.098457 446.417786,39.301380 446.090820,39.760483 
	C445.671539,40.106243 445.423431,40.304550 445.092865,40.762016 
	C444.672821,41.107479 444.424652,41.305691 444.093811,41.762833 
	C443.674316,42.106766 443.425995,42.303047 443.094116,42.756844 
z"/>
<path fill="#E4B853" opacity="1.000000" stroke="none" 
	d="
M367.905823,168.733932 
	C367.041962,168.581421 366.152039,168.075714 365.130249,167.278839 
	C365.958862,167.452026 366.919312,167.916382 367.905823,168.733932 
z"/>
<path fill="#E4B853" opacity="1.000000" stroke="none" 
	d="
M398.844910,65.348267 
	C399.102356,64.678062 399.675842,64.241035 400.539459,63.781693 
	C400.273376,64.366737 399.717194,64.974091 398.844910,65.348267 
z"/>
<path fill="#E4B853" opacity="1.000000" stroke="none" 
	d="
M450.779053,33.209862 
	C451.031616,33.471916 451.024567,33.891083 450.974426,34.621300 
	C450.931305,34.932343 450.485565,35.016830 450.261047,35.047630 
	C450.197510,34.507946 450.358490,33.937462 450.779053,33.209862 
z"/>
<path fill="#E4B853" opacity="1.000000" stroke="none" 
	d="
M364.768982,166.124268 
	C364.292297,166.187714 363.718201,165.906006 362.949280,165.367737 
	C363.393463,165.333817 364.032501,165.556458 364.768982,166.124268 
z"/>
<path fill="#E4B853" opacity="1.000000" stroke="none" 
	d="
M368.022888,87.784157 
	C367.960022,87.539955 368.172424,87.246246 368.666321,86.909439 
	C368.731262,87.155792 368.514709,87.445221 368.022888,87.784157 
z"/>
<path fill="#E4B853" opacity="1.000000" stroke="none" 
	d="
M368.866882,169.821243 
	C368.682556,169.878265 368.400818,169.699844 368.024109,169.284607 
	C368.209229,169.227112 368.489319,169.406464 368.866882,169.821243 
z"/>
<path fill="#F2B741" opacity="1.000000" stroke="none" 
	d="
M99.953125,458.330048 
	C112.098907,446.011108 124.285103,434.131470 136.290833,422.072174 
	C143.693573,414.636414 150.843307,406.947601 158.030945,399.301239 
	C158.621933,398.672516 158.630600,397.496338 158.835083,396.197357 
	C158.760284,395.820160 158.799118,395.841064 159.073303,395.793518 
	C159.525421,395.430634 159.703323,395.115295 159.881226,394.799957 
	C159.881226,394.799957 159.894989,394.920624 160.252640,394.936493 
	C165.351990,394.237091 167.143036,391.750061 166.288086,387.068207 
	C166.288086,387.068207 166.044525,387.061493 166.004608,386.945831 
	C164.462738,386.219635 162.966782,385.097137 161.457901,385.079498 
	C149.296021,384.937134 137.131546,385.033295 124.968277,384.972748 
	C123.098869,384.963440 121.231590,384.525024 117.778870,384.081573 
	C124.117889,377.260864 129.452789,371.493103 134.820908,365.756470 
	C137.372299,363.029968 139.948013,360.323792 142.584473,357.679993 
	C145.054291,355.203308 147.972015,354.639984 151.609650,355.998291 
	C153.887894,361.785736 159.376709,363.327026 163.925125,365.755127 
	C169.551270,368.758575 175.394760,371.417175 181.323578,373.773804 
	C187.254745,376.131348 193.369766,378.053284 199.474823,379.937286 
	C203.851562,381.287903 208.344650,382.261536 213.626266,383.619446 
	C212.383041,385.530701 211.825974,387.187164 210.673813,388.034393 
	C199.341690,396.367462 187.841995,404.472992 176.524246,412.825195 
	C160.880432,424.369965 145.405014,436.142944 129.753128,447.676636 
	C121.829506,453.515442 113.676788,459.043396 104.979874,464.822693 
	C102.913071,464.496704 101.494064,464.059937 100.075066,463.623169 
	C100.057716,465.089966 100.040359,466.556793 100.023010,468.023621 
	C100.023003,468.023621 100.009178,468.013916 100.016975,468.019165 
	C98.819756,467.865967 97.614731,467.707581 95.883591,467.480011 
	C97.383881,464.212036 98.650620,461.452789 99.953125,458.330048 
z"/>
<path fill="#F0BD46" opacity="1.000000" stroke="none" 
	d="
M100.374283,468.018494 
	C100.040359,466.556793 100.057716,465.089966 100.075066,463.623169 
	C101.494064,464.059937 102.913071,464.496704 104.679756,464.973450 
	C103.593475,466.013428 102.159515,467.013428 100.374283,468.018494 
z"/>
<path fill="#D7AF56" opacity="1.000000" stroke="none" 
	d="
M65.832664,495.713867 
	C66.037270,495.988251 65.932915,496.403168 65.875580,496.609222 
	C65.507309,496.823395 65.216118,496.903381 64.408340,497.142639 
	C63.593586,497.524323 63.315155,497.818542 63.036724,498.112762 
	C62.703384,498.429382 62.370045,498.745972 61.472000,499.160828 
	C60.632618,499.588989 60.357937,499.918915 60.083260,500.248840 
	C58.951611,501.164032 57.819962,502.079254 56.245483,502.761047 
	C55.507507,501.616760 55.212357,500.705902 54.917206,499.795013 
	C54.917206,499.795013 54.949215,499.389862 54.964573,499.187195 
	C55.438251,498.647430 55.896576,498.310303 56.761944,498.044067 
	C57.405224,497.636749 57.641460,497.158539 57.877701,496.680359 
	C60.011681,494.486420 62.145657,492.292480 64.593407,489.987732 
	C65.147476,491.731079 65.387764,493.585266 65.832664,495.713867 
z"/>
<path fill="#D7AF56" opacity="1.000000" stroke="none" 
	d="
M80.929733,473.250519 
	C81.292130,472.841003 81.568741,472.666687 81.936325,472.259521 
	C83.780334,470.389435 85.533363,468.752228 87.592941,466.994751 
	C86.785522,472.687683 82.565979,475.647736 77.312653,477.981415 
	C77.891594,476.852631 78.839211,475.739166 79.918427,474.339294 
	C80.314659,473.863800 80.579300,473.674744 80.929733,473.250519 
z"/>
<path fill="#D7AF56" opacity="1.000000" stroke="none" 
	d="
M65.255966,489.937378 
	C66.691399,487.983856 68.504143,486.065857 70.627396,484.030121 
	C70.387703,486.998657 69.324707,489.636078 65.255966,489.937378 
z"/>
<path fill="#D7AF56" opacity="1.000000" stroke="none" 
	d="
M91.249847,463.921661 
	C92.012184,462.605469 93.166473,461.326843 94.627274,459.928040 
	C93.836449,461.191681 92.739120,462.575439 91.249847,463.921661 
z"/>
<path fill="#D7AF56" opacity="1.000000" stroke="none" 
	d="
M72.959274,481.380005 
	C73.095970,481.109192 73.543686,481.034119 73.769165,481.007660 
	C73.218941,481.979187 72.443253,482.977142 71.289764,483.955627 
	C71.548843,483.174377 72.185715,482.412598 72.959274,481.380005 
z"/>
<path fill="#D7AF56" opacity="1.000000" stroke="none" 
	d="
M88.131332,466.840759 
	C88.048531,466.620209 88.231850,466.305267 88.679382,465.891968 
	C88.761559,466.111206 88.579514,466.428802 88.131332,466.840759 
z"/>
<path fill="#D7AF56" opacity="1.000000" stroke="none" 
	d="
M90.056236,464.858398 
	C89.983154,464.629578 90.182411,464.319916 90.652702,463.929443 
	C90.725349,464.158264 90.526962,464.467926 90.056236,464.858398 
z"/>
<path fill="#D7AF56" opacity="1.000000" stroke="none" 
	d="
M166.149933,387.379456 
	C167.143036,391.750061 165.351990,394.237091 160.211212,394.892090 
	C161.878677,392.451477 163.945221,390.071106 166.149933,387.379456 
z"/>
<path fill="#D7AF56" opacity="1.000000" stroke="none" 
	d="
M159.610413,394.872833 
	C159.703323,395.115295 159.525421,395.430634 159.073410,395.815277 
	C158.979416,395.571625 159.159515,395.258667 159.610413,394.872833 
z"/>
<path fill="#CCAA64" opacity="1.000000" stroke="none" 
	d="
M54.647240,499.941223 
	C55.212357,500.705902 55.507507,501.616760 55.944946,502.861420 
	C53.386574,504.992035 50.685913,506.788879 47.985252,508.585724 
	C47.350605,507.850250 46.715958,507.114746 46.081310,506.379242 
	C47.973049,505.139069 49.864784,503.898926 51.913200,502.365265 
	C52.839012,501.410339 53.608143,500.748871 54.647240,499.941223 
z"/>
<path fill="#CCAA64" opacity="1.000000" stroke="none" 
	d="
M60.383678,500.138489 
	C60.357937,499.918915 60.632618,499.588989 61.235191,499.189636 
	C61.270092,499.422821 60.977097,499.725464 60.383678,500.138489 
z"/>
<path fill="#CCAA64" opacity="1.000000" stroke="none" 
	d="
M63.326134,498.024963 
	C63.315155,497.818542 63.593586,497.524323 64.182266,497.173706 
	C64.200188,497.390564 63.907867,497.663879 63.326134,498.024963 
z"/>
<path fill="#CCAA64" opacity="1.000000" stroke="none" 
	d="
M57.650223,496.789062 
	C57.641460,497.158539 57.405224,497.636749 57.017914,497.914917 
	C57.052139,497.442505 57.237446,497.170105 57.650223,496.789062 
z"/>
</svg>